<?xml version="1.0" encoding="UTF-8"?>
<svg version="1.1" xmlns="http://www.w3.org/2000/svg" width="202" height="218">
<path d="M0 0 C66.66 0 133.32 0 202 0 C202 71.94 202 143.88 202 218 C135.34 218 68.68 218 0 218 C0 146.06 0 74.12 0 0 Z " fill="#FCFDFD" transform="translate(0,0)"/>
<path d="M0 0 C1.98 0 3.96 0 6 0 C6 17.49 6 34.98 6 53 C3.36 53 0.72 53 -2 53 C-2.33 52.34 -2.66 51.68 -3 51 C-4.3303125 51.495 -4.3303125 51.495 -5.6875 52 C-11.31309323 53.65048396 -17.19845814 53.15703422 -23 53 C-23 52.34 -23 51.68 -23 51 C-24.32 51 -25.64 51 -27 51 C-27.33 49.02 -27.66 47.04 -28 45 C-28.66 45 -29.32 45 -30 45 C-33.57404732 39.49001038 -33.6916229 34.35370908 -33 28 C-31.96559837 24.10867959 -30.37026967 20.38727435 -27 18 C-26.01 18 -25.02 18 -24 18 C-24 17.01 -24 16.02 -24 15 C-22.68 15 -21.36 15 -20 15 C-20 14.34 -20 13.68 -20 13 C-12.64825194 12.44746779 -7.488417 13.48935892 -1 17 C-1.01160156 15.85660156 -1.02320312 14.71320313 -1.03515625 13.53515625 C-1.04453288 12.04427246 -1.05363321 10.55338691 -1.0625 9.0625 C-1.07087891 8.30775391 -1.07925781 7.55300781 -1.08789062 6.77539062 C-1.09652441 4.85005687 -1.05224333 2.92464419 -1 1 C-0.67 0.67 -0.34 0.34 0 0 Z " fill="#A0B6D4" transform="translate(69,145)"/>
<path d="M0 0 C3.29206132 4.05349047 3.37476236 7.79482911 3.1875 12.8125 C3.16719727 13.85180664 3.16719727 13.85180664 3.14648438 14.91210938 C3.11138845 16.60841265 3.05758943 18.30431136 3 20 C2.34 20 1.68 20 1 20 C0.67 21.65 0.34 23.3 0 25 C-1.32 25.33 -2.64 25.66 -4 26 C-4 26.66 -4 27.32 -4 28 C-6.88415883 29.44207941 -9.41721528 29.09394887 -12.625 29.0625 C-13.81351563 29.05347656 -15.00203125 29.04445312 -16.2265625 29.03515625 C-17.14179688 29.02355469 -18.05703125 29.01195312 -19 29 C-19.495 27.515 -19.495 27.515 -20 26 C-20.66 26 -21.32 26 -22 26 C-22 25.34 -22 24.68 -22 24 C-23.32 24 -24.64 24 -26 24 C-28.527223 20.14802301 -28.43878449 16.07842857 -28.5 11.625 C-28.54125 10.8825 -28.5825 10.14 -28.625 9.375 C-28.68577216 5.07536982 -28.20883121 2.68247242 -25.18359375 -0.48046875 C-18.7133979 -6.39122305 -7.04120426 -4.34717828 0 0 Z " fill="#FAFAFA" transform="translate(170,107)"/>
<path d="M0 0 C0.495 0.99 0.495 0.99 1 2 C1.99 2.33 2.98 2.66 4 3 C8.35803498 9.64678716 8.50370665 15.20339935 8.25 23 C8.23195313 24.06089844 8.21390625 25.12179688 8.1953125 26.21484375 C8.14853748 28.8108572 8.08301142 31.40493528 8 34 C7.01 34.495 7.01 34.495 6 35 C5.3838935 37.25001264 5.3838935 37.25001264 5 39.875 C4.4277221 43.38020217 4.01953816 44.97069276 2 48 C1.31060191 50.32671854 0.64533078 52.66067594 0 55 C-0.64199649 56.67632417 -1.29894157 58.34750513 -2 60 C-2.99 60 -3.98 60 -5 60 C-4.24984418 52.62346781 -3.16558465 45.32168224 -2 38 C-1.34 38 -0.68 38 0 38 C-0.37886446 25.38766926 -0.37886446 25.38766926 -7 15 C-9.06874034 14.3574765 -9.06874034 14.3574765 -11 14 C-11 13.34 -11 12.68 -11 12 C-11.66 12 -12.32 12 -13 12 C-13.495 11.01 -13.495 11.01 -14 10 C-19.77935055 7.7950269 -25.18027256 7.72776377 -31.3125 7.8125 C-32.67084961 7.8134668 -32.67084961 7.8134668 -34.05664062 7.81445312 C-38.68362639 7.68446409 -38.68362639 7.68446409 -43 9 C-45.29809536 9.30869938 -47.59720129 9.50883648 -49.90625 9.71875 C-52.05443933 9.892155 -52.05443933 9.892155 -54 11 C-56.04055005 11.07065617 -58.08334257 11.08421976 -60.125 11.0625 C-61.22070312 11.05347656 -62.31640625 11.04445313 -63.4453125 11.03515625 C-64.70988281 11.01775391 -64.70988281 11.01775391 -66 11 C-66 10.67 -66 10.34 -66 10 C-61.53383147 8.35456949 -57.1092489 7.38548634 -52.44921875 6.5078125 C-49.7787328 5.99513616 -49.7787328 5.99513616 -46.375 4.875 C-42.38787089 3.84129986 -39.10428525 3.85598999 -35 4 C-35 3.34 -35 2.68 -35 2 C-25.55646725 -2.82222949 -10.30122726 -2.52761595 0 0 Z " fill="#2154A0" transform="translate(139,34)"/>
<path d="M0 0 C27.82667137 -0.83931955 27.82667137 -0.83931955 37 4 C37.495 4.495 37.495 4.495 38 5 C39.051875 5.12375 40.10375 5.2475 41.1875 5.375 C45.01132125 6.00185594 47.6437707 7.11723722 51 9 C51 9.33 51 9.66 51 10 C48.8537974 9.85970581 46.70803782 9.71261836 44.5625 9.5625 C43.36753906 9.48128906 42.17257813 9.40007813 40.94140625 9.31640625 C38 9 38 9 37 8 C34.78312006 7.84126045 32.56144702 7.74866163 30.33984375 7.68359375 C29.34314415 7.6524221 29.34314415 7.6524221 28.3263092 7.62062073 C26.19681457 7.55506342 24.06719332 7.49621215 21.9375 7.4375 C20.49673153 7.39432061 19.05597601 7.35070651 17.61523438 7.30664062 C14.0769596 7.19937607 10.53854131 7.09812629 7 7 C7 7.66 7 8.32 7 9 C5.35443434 10.03435556 3.6829392 11.02763513 2 12 C-1.80487446 14.83153448 -4.53180147 16.928666 -5.6171875 21.73046875 C-6.67595888 30.77324064 -6.2631556 40.00001638 -5 49 C-4.34 49 -3.68 49 -3 49 C-1.80712589 52.87684087 -1 55.91621923 -1 60 C-2.859375 59.80078125 -2.859375 59.80078125 -5 59 C-6.265625 56.85546875 -6.265625 56.85546875 -7.25 54.1875 C-7.58515625 53.31480469 -7.9203125 52.44210938 -8.265625 51.54296875 C-9 49 -9 49 -9 45 C-9.66 45 -10.32 45 -11 45 C-16.4567757 21.80870327 -16.4567757 21.80870327 -12.875 11.9375 C-10.59054806 8.3585253 -8.46996025 6.43635507 -5 4 C-4.34 4 -3.68 4 -3 4 C-3 3.34 -3 2.68 -3 2 C-2.01 2 -1.02 2 0 2 C0 1.34 0 0.68 0 0 Z " fill="#24549A" transform="translate(37,21)"/>
<path d="M0 0 C1.06863281 0.01804688 2.13726562 0.03609375 3.23828125 0.0546875 C4.04652344 0.07789063 4.85476562 0.10109375 5.6875 0.125 C5.6875 0.785 5.6875 1.445 5.6875 2.125 C6.285625 2.228125 6.88375 2.33125 7.5 2.4375 C10.05066765 3.2391384 11.05441995 4.02532564 12.6875 6.125 C13.99477185 10.41248599 14.38692903 14.69015881 13.6875 19.125 C11.7427563 22.67659757 9.04540574 24.88639617 5.6875 27.125 C-0.64180492 28.10340144 -6.77524438 28.31079977 -12.125 24.4375 C-15.49168596 20.98576092 -15.83674697 18.12099798 -15.9375 13.375 C-15.75713695 9.29309946 -15.60584678 7.56502016 -13.3125 4.125 C-12.6525 4.125 -11.9925 4.125 -11.3125 4.125 C-11.3125 3.465 -11.3125 2.805 -11.3125 2.125 C-7.38392246 0.27368517 -4.32474888 -0.09504943 0 0 Z " fill="#F5FAFC" transform="translate(55.3125,163.875)"/>
<path d="M0 0 C-0.66 0.99 -1.32 1.98 -2 3 C-2.99 3 -3.98 3 -5 3 C-5 3.66 -5 4.32 -5 5 C-6.03125 5.103125 -7.0625 5.20625 -8.125 5.3125 C-11.16906289 6.12466342 -11.9593806 6.9417583 -13.80078125 9.58203125 C-15.29174592 12.35401569 -16.69299714 15.13704135 -18 18 C-18.66 18 -19.32 18 -20 18 C-20.12246094 18.85851562 -20.24492188 19.71703125 -20.37109375 20.6015625 C-21.00127116 24.00686898 -21.93562279 27.10342101 -23.0625 30.375 C-23.42472656 31.43460938 -23.78695312 32.49421875 -24.16015625 33.5859375 C-24.43730469 34.38257813 -24.71445313 35.17921875 -25 36 C-25.66 36 -26.32 36 -27 36 C-27.12117188 36.556875 -27.24234375 37.11375 -27.3671875 37.6875 C-27.72026821 39.29537522 -28.07873909 40.9020724 -28.44140625 42.5078125 C-28.91623893 44.62629676 -29.36696909 46.75016028 -29.8125 48.875 C-30.89616039 53.21824205 -32.85196549 57.07943321 -34.765625 61.109375 C-36.38969565 64.91257841 -37.38420326 68.76558082 -38.32421875 72.78515625 C-39 75 -39 75 -41 77 C-43.625 77.125 -43.625 77.125 -46 77 C-49 70.5 -49 70.5 -49 66 C-49.66 66 -50.32 66 -51 66 C-51.21914063 65.2471875 -51.43828125 64.494375 -51.6640625 63.71875 C-53.59567934 57.24861879 -55.70106579 50.88719074 -58.0625 44.5625 C-58.30758301 43.90121094 -58.55266602 43.23992187 -58.80517578 42.55859375 C-59.94195265 39.5535488 -61.16488969 36.67222171 -62.609375 33.80078125 C-64.38372211 30.22716642 -65.12991877 26.88190087 -66 23 C-61.25 23.75 -61.25 23.75 -59 26 C-59 27.32 -59 28.64 -59 30 C-58.34 30 -57.68 30 -57 30 C-56.77957031 31.11181641 -56.77957031 31.11181641 -56.5546875 32.24609375 C-54.95775891 39.74431591 -52.79844199 46.80897288 -50.15771484 53.99780273 C-47.99070087 59.89860839 -46.12690776 65.80200734 -45 72 C-40.35596829 68.90397886 -39.51653479 64.22283242 -38 59 C-37.78991789 57.61003814 -37.61697153 56.21337335 -37.5 54.8125 C-36.98058485 50.85195951 -35.9063219 48.45467932 -34.05078125 45 C-30.96780171 39.13202407 -29.58732401 33.57802889 -29 27 C-28.34 27 -27.68 27 -27 27 C-27 25.35 -27 23.7 -27 22 C-26.01 22 -25.02 22 -24 22 C-23.896875 21.484375 -23.79375 20.96875 -23.6875 20.4375 C-21.24354431 11.77256619 -16.50562474 5.0947271 -9 0 C-5.6300357 -1.01098929 -3.33988568 -1.11329523 0 0 Z " fill="#919395" transform="translate(100,62)"/>
<path d="M0 0 C0.77150391 0.00064453 1.54300781 0.00128906 2.33789062 0.00195312 C8.03090339 0.0467017 8.03090339 0.0467017 10.3125 1.1875 C10.3125 1.8475 10.3125 2.5075 10.3125 3.1875 C11.6325 3.5175 12.9525 3.8475 14.3125 4.1875 C14.6425 2.8675 14.9725 1.5475 15.3125 0.1875 C16.6325 0.1875 17.9525 0.1875 19.3125 0.1875 C19.3125 12.7275 19.3125 25.2675 19.3125 38.1875 C17.3325 38.6825 17.3325 38.6825 15.3125 39.1875 C14.3125 38.1875 14.3125 38.1875 14.25 35.625 C14.270625 34.820625 14.29125 34.01625 14.3125 33.1875 C11.78817822 34.26935219 10.39916096 35.07958258 8.65625 37.25 C5.42084427 39.92460207 2.55543199 39.63374997 -1.4375 39.4375 C-2.13488281 39.41945312 -2.83226562 39.40140625 -3.55078125 39.3828125 C-5.26361539 39.33588554 -6.97573824 39.26414605 -8.6875 39.1875 C-8.6875 38.5275 -8.6875 37.8675 -8.6875 37.1875 C-9.27273437 37.08050781 -9.85796875 36.97351563 -10.4609375 36.86328125 C-12.98170096 36.09820743 -14.33363865 35.09669655 -16.3125 33.375 C-16.90289062 32.87355469 -17.49328125 32.37210938 -18.1015625 31.85546875 C-21.85743703 27.90532485 -22.11667121 24.1781956 -22.0078125 18.921875 C-21.3425646 13.24292952 -19.24380765 8.1956389 -15.75 3.6875 C-10.6819733 0.0016624 -6.03780724 -0.09730139 0 0 Z M-14.8828125 6.703125 C-17.89634089 9.8674712 -18.37317553 12.26970597 -18.3125 16.5625 C-18.27125 17.305 -18.23 18.0475 -18.1875 18.8125 C-18.1771875 19.56273438 -18.166875 20.31296875 -18.15625 21.0859375 C-18.04837992 24.88835781 -17.80266716 27.96357586 -15.6875 31.1875 C-14.3675 31.1875 -13.0475 31.1875 -11.6875 31.1875 C-11.6875 31.8475 -11.6875 32.5075 -11.6875 33.1875 C-11.0275 33.1875 -10.3675 33.1875 -9.6875 33.1875 C-9.3575 34.1775 -9.0275 35.1675 -8.6875 36.1875 C-6.56256859 36.21443575 -4.43754088 36.23386628 -2.3125 36.25 C-1.12914062 36.26160156 0.05421875 36.27320313 1.2734375 36.28515625 C4.23171521 36.40216593 4.23171521 36.40216593 6.3125 35.1875 C6.3125 34.5275 6.3125 33.8675 6.3125 33.1875 C7.6325 32.8575 8.9525 32.5275 10.3125 32.1875 C10.6425 30.5375 10.9725 28.8875 11.3125 27.1875 C11.9725 27.1875 12.6325 27.1875 13.3125 27.1875 C13.42133596 24.81124823 13.50016696 22.44006024 13.5625 20.0625 C13.59601563 19.39734375 13.62953125 18.7321875 13.6640625 18.046875 C13.76468483 12.91513617 12.67976092 10.03579819 9.3125 6.1875 C6.92571199 4.85488428 6.92571199 4.85488428 4.3125 4.3125 C3.466875 4.08820313 2.62125 3.86390625 1.75 3.6328125 C-4.09622115 2.56475287 -10.34590789 2.53438726 -14.8828125 6.703125 Z " fill="#808283" transform="translate(159.6875,99.8125)"/>
<path d="M0 0 C0 3.96 0 7.92 0 12 C2.31 12.33 4.62 12.66 7 13 C7 14.98 7 16.96 7 19 C4.69 19 2.38 19 0 19 C0 29.89 0 40.78 0 52 C-1.98 52 -3.96 52 -6 52 C-7 51 -7 51 -7.11352539 47.94897461 C-7.11336634 46.60008729 -7.10767612 45.25119386 -7.09765625 43.90234375 C-7.0962413 43.19348526 -7.09482635 42.48462677 -7.09336853 41.75428772 C-7.08775443 39.48198288 -7.07519963 37.20977525 -7.0625 34.9375 C-7.05748681 33.40039204 -7.05292359 31.86328255 -7.04882812 30.32617188 C-7.03778042 26.55074358 -7.02050641 22.77538829 -7 19 C-7.804375 19.020625 -8.60875 19.04125 -9.4375 19.0625 C-12 19 -12 19 -13 18 C-13.125 15.5 -13.125 15.5 -13 13 C-12.67 12.67 -12.34 12.34 -12 12 C-10.35 12 -8.7 12 -7 12 C-7 8.37 -7 4.74 -7 1 C-5 0 -5 0 0 0 Z " fill="#94ABCB" transform="translate(179,145)"/>
<path d="M0 0 C0 0.66 0 1.32 0 2 C-1.216875 2.226875 -2.43375 2.45375 -3.6875 2.6875 C-7.98007674 3.72835489 -10.04801288 5.70072028 -13 9 C-13.66 9 -14.32 9 -15 9 C-15.33 11.64 -15.66 14.28 -16 17 C-6.43 17 3.14 17 13 17 C12.34 13.7 11.68 10.4 11 7 C9.02 6.34 7.04 5.68 5 5 C5 4.34 5 3.68 5 3 C4.01 2.67 3.02 2.34 2 2 C2 1.67 2 1.34 2 1 C3.65 1 5.3 1 7 1 C7 1.66 7 2.32 7 3 C7.556875 3.04125 8.11375 3.0825 8.6875 3.125 C12.44853127 4.54809291 13.82888588 6.65531069 16 10 C16.495 14.95 16.495 14.95 17 20 C6.11 20 -4.78 20 -16 20 C-14.72993617 26.73511083 -14.72993617 26.73511083 -11.4375 29.375 C-6.02182876 31.9351355 -0.91791009 32 5 32 C5.33 31.01 5.66 30.02 6 29 C9.465 28.505 9.465 28.505 13 28 C10.94778346 32.85069365 7.70867333 34.87942726 3 37 C-3.94596312 38.12031663 -9.27713134 36.01484268 -15 32 C-19.24205781 27.89080306 -20.32261014 23.75301165 -20.5625 17.9375 C-20.30621668 12.44472497 -19.41408391 9.31252705 -16 5 C-10.77748256 0.77753909 -6.57672102 -0.18790631 0 0 Z " fill="#1C4D8D" transform="translate(103,160)"/>
<path d="M0 0 C1.9375 0.375 1.9375 0.375 4 1 C5.96867492 4.93734985 5.59970206 9.7191481 5 14 C2.5 16.3125 2.5 16.3125 0 18 C0.04125 18.94875 0.0825 19.8975 0.125 20.875 C0 24 0 24 -1.46875 25.68359375 C-6.59270993 30.06205951 -9.26215804 31.12488947 -16.125 31.0625 C-17.40632813 31.05347656 -18.68765625 31.04445312 -20.0078125 31.03515625 C-20.99523437 31.02355469 -21.98265625 31.01195312 -23 31 C-23 30.34 -23 29.68 -23 29 C-24.98 28.67 -26.96 28.34 -29 28 C-29.33 26.68 -29.66 25.36 -30 24 C-29.29875 24.3609375 -28.5975 24.721875 -27.875 25.09375 C-21.94806029 27.9927966 -17.60131869 30.08218339 -11 29 C-6.67873071 26.98136088 -3.66118276 24.99177415 -1 21 C-3.35171131 21.59861742 -5.6859378 22.26924352 -8 23 C-8.33 23.66 -8.66 24.32 -9 25 C-15.06659121 26.67925137 -19.855656 26.25403798 -25.30859375 23.203125 C-28.66036314 20.81895648 -28.66036314 20.81895648 -30 19 C-30 17.02 -30 15.04 -30 13 C-19.11 13 -8.22 13 3 13 C1.7670815 6.42907265 1.7670815 6.42907265 0 0 Z " fill="#E8F3F9" transform="translate(117,167)"/>
<path d="M0 0 C1.11761719 0.07831055 1.11761719 0.07831055 2.2578125 0.15820312 C4.08894861 0.2873217 5.91953813 0.42415114 7.75 0.5625 C7.75 1.2225 7.75 1.8825 7.75 2.5625 C9.07 3.2225 10.39 3.8825 11.75 4.5625 C11.75 5.5525 11.75 6.5425 11.75 7.5625 C11.316875 7.088125 10.88375 6.61375 10.4375 6.125 C8.72690387 4.32563043 8.72690387 4.32563043 5.75 3.5625 C5.75 2.9025 5.75 2.2425 5.75 1.5625 C4.43 1.8925 3.11 2.2225 1.75 2.5625 C3.53770901 4.63247885 4.70424891 5.54576179 7.3125 6.5 C9.75 7.5625 9.75 7.5625 11.0625 9.3125 C11.75 11.5625 11.75 11.5625 11.75 17.5625 C2.18 17.5625 -7.39 17.5625 -17.25 17.5625 C-16.92 14.9225 -16.59 12.2825 -16.25 9.5625 C-13.8125 7.75 -13.8125 7.75 -11.25 6.5625 C-10.59 5.5725 -9.93 4.5825 -9.25 3.5625 C-7.3046875 3.05078125 -7.3046875 3.05078125 -5.125 2.875 C-3.206875 2.7203125 -3.206875 2.7203125 -1.25 2.5625 C-1.25 1.9025 -1.25 1.2425 -1.25 0.5625 C-5.21 1.2225 -9.17 1.8825 -13.25 2.5625 C-12.25 0.5625 -12.25 0.5625 -10.43066406 -0.07006836 C-6.94737608 -0.656986 -3.5008013 -0.26905452 0 0 Z " fill="#F2F9FE" transform="translate(104.25,159.4375)"/>
<path d="M0 0 C4.2097872 2.28531305 5.68400258 4.67108847 7.1875 9.1875 C7.41455078 12.23364258 7.41455078 12.23364258 7.3828125 15.58203125 C7.37636719 16.78408203 7.36992187 17.98613281 7.36328125 19.22460938 C7.34652344 20.47048828 7.32976562 21.71636719 7.3125 23 C7.30347656 24.26521484 7.29445312 25.53042969 7.28515625 26.83398438 C7.26162394 29.95201564 7.22874545 33.06966097 7.1875 36.1875 C6.1975 36.1875 5.2075 36.1875 4.1875 36.1875 C4.1781543 35.39053711 4.16880859 34.59357422 4.15917969 33.77246094 C4.10548502 30.16017825 4.02183392 26.54919179 3.9375 22.9375 C3.92332031 21.68324219 3.90914062 20.42898437 3.89453125 19.13671875 C3.86230469 17.93144531 3.83007812 16.72617188 3.796875 15.484375 C3.77592773 14.37416992 3.75498047 13.26396484 3.73339844 12.12011719 C3.07105593 8.56195161 2.03232574 7.36331706 -0.8125 5.1875 C-3.7465137 4.55700694 -3.7465137 4.55700694 -6.875 4.6875 C-7.91785156 4.6771875 -8.96070313 4.666875 -10.03515625 4.65625 C-12.9437656 4.91398518 -12.9437656 4.91398518 -14.55859375 7.21875 C-14.97238281 7.8684375 -15.38617188 8.518125 -15.8125 9.1875 C-16.4725 9.1875 -17.1325 9.1875 -17.8125 9.1875 C-17.8125 18.0975 -17.8125 27.0075 -17.8125 36.1875 C-18.8025 36.1875 -19.7925 36.1875 -20.8125 36.1875 C-20.8125 24.3075 -20.8125 12.4275 -20.8125 0.1875 C-19.4925 0.1875 -18.1725 0.1875 -16.8125 0.1875 C-16.8125 0.8475 -16.8125 1.5075 -16.8125 2.1875 C-15.9875 1.6925 -15.1625 1.1975 -14.3125 0.6875 C-9.31247967 -1.45536586 -5.31077591 -1.53422415 0 0 Z " fill="#22457F" transform="translate(150.8125,159.8125)"/>
<path d="M0 0 C2.97 0.495 2.97 0.495 6 1 C6.061875 1.94875 6.12375 2.8975 6.1875 3.875 C6.78685573 8.23795716 8.75633165 11.65150114 10.796875 15.50390625 C12.45302924 18.93988858 13.16727735 22.28477587 14 26 C14.37125 26.7425 14.7425 27.485 15.125 28.25 C16 30 16 30 16 34 C16.99 34 17.98 34 19 34 C19.99 30.535 19.99 30.535 21 27 C21.66 27 22.32 27 23 27 C23.103125 26.21625 23.20625 25.4325 23.3125 24.625 C24.52374587 18.23843086 26.41321337 11.96950762 29 6 C29.66 6 30.32 6 31 6 C31.66 4.35 32.32 2.7 33 1 C34.23922223 4.71766668 33.57018942 6.43889537 32.5625 10.1875 C32.13130859 11.81751953 32.13130859 11.81751953 31.69140625 13.48046875 C31.46324219 14.31191406 31.23507813 15.14335938 31 16 C30.34 16 29.68 16 29 16 C28.896875 16.78375 28.79375 17.5675 28.6875 18.375 C25.59034805 34.70543756 25.59034805 34.70543756 20 40 C17.3359375 40.2109375 17.3359375 40.2109375 15 40 C11.78683748 33.09106557 8.84475525 26.18773713 6.29296875 19.01171875 C5.00444118 15.46310004 3.58938737 12.14729215 1.8125 8.8125 C0.21858988 5.73982915 -0.44034148 3.52273182 0 0 Z " fill="#9EA0A1" transform="translate(99,99)"/>
<path d="M0 0 C-0.66 0.99 -1.32 1.98 -2 3 C-2.99 3 -3.98 3 -5 3 C-5 3.66 -5 4.32 -5 5 C-6.03125 5.103125 -7.0625 5.20625 -8.125 5.3125 C-11.16906289 6.12466342 -11.9593806 6.9417583 -13.80078125 9.58203125 C-15.29174592 12.35401569 -16.69299714 15.13704135 -18 18 C-18.66 18 -19.32 18 -20 18 C-20.12246094 18.85851562 -20.24492188 19.71703125 -20.37109375 20.6015625 C-21.00127116 24.00686898 -21.93562279 27.10342101 -23.0625 30.375 C-23.42472656 31.43460938 -23.78695312 32.49421875 -24.16015625 33.5859375 C-24.43730469 34.38257813 -24.71445313 35.17921875 -25 36 C-25.66 36 -26.32 36 -27 36 C-27.12117188 36.556875 -27.24234375 37.11375 -27.3671875 37.6875 C-27.90288552 40.12698637 -28.4502209 42.56365017 -29 45 C-29.16757813 45.76183594 -29.33515625 46.52367187 -29.5078125 47.30859375 C-30.77058473 52.77058473 -30.77058473 52.77058473 -33 55 C-32.67 52.36 -32.34 49.72 -32 47 C-33.32 49.64 -34.64 52.28 -36 55 C-37.11838791 50.52644836 -37.11838791 50.52644836 -35.25 47.25 C-31.66785314 40.55671521 -29.67670716 34.57912014 -29 27 C-28.34 27 -27.68 27 -27 27 C-27 25.35 -27 23.7 -27 22 C-26.01 22 -25.02 22 -24 22 C-23.8453125 21.2265625 -23.8453125 21.2265625 -23.6875 20.4375 C-21.24354431 11.77256619 -16.50562474 5.0947271 -9 0 C-5.6300357 -1.01098929 -3.33988568 -1.11329523 0 0 Z " fill="#B3B3B3" transform="translate(100,62)"/>
<path d="M0 0 C3.65411999 -0.20300667 5.87645193 0.07617658 9 2 C13.21969393 7.39183113 13.57070083 13.21532189 13.375 19.8125 C13.37371094 20.65748047 13.37242187 21.50246094 13.37109375 22.37304688 C13.28240412 28.57639382 13.28240412 28.57639382 11 32 C10.60986284 33.9896995 10.26797351 35.99019869 10 38 C9.34 38 8.68 38 8 38 C8 32.72 8 27.44 8 22 C7.34 22 6.68 22 6 22 C5.73445312 21.44570313 5.46890625 20.89140625 5.1953125 20.3203125 C4.84210938 19.59585938 4.48890625 18.87140625 4.125 18.125 C3.77695313 17.40570313 3.42890625 16.68640625 3.0703125 15.9453125 C2.03442457 13.84864981 2.03442457 13.84864981 0 12 C0.375 9.875 0.375 9.875 1 8 C2.32 7.67 3.64 7.34 5 7 C5 6.01 5 5.02 5 4 C3.02 3.34 1.04 2.68 -1 2 C-0.67 1.34 -0.34 0.68 0 0 Z " fill="#1A4993" transform="translate(133,36)"/>
<path d="M0 0 C4.96376806 0.05220648 9.17976594 0.65511968 13.87866211 2.18945312 C13.87866211 2.51945312 13.87866211 2.84945312 13.87866211 3.18945312 C13.22381836 3.17897949 12.56897461 3.16850586 11.89428711 3.15771484 C8.88911879 3.11579954 5.88401227 3.09001503 2.87866211 3.06445312 C1.84870117 3.04769531 0.81874023 3.0309375 -0.24243164 3.01367188 C-6.24588945 2.97543329 -11.37288859 3.43451788 -17.12133789 5.18945312 C-17.12133789 5.84945312 -17.12133789 6.50945313 -17.12133789 7.18945312 C-18.33370117 7.37121094 -18.33370117 7.37121094 -19.57055664 7.55664062 C-20.63918945 7.72421875 -21.70782227 7.89179687 -22.80883789 8.06445312 C-23.86458008 8.226875 -24.92032227 8.38929687 -26.00805664 8.55664062 C-28.92967908 9.15049613 -31.37174451 10.07059058 -34.12133789 11.18945312 C-36.32446289 11.56835938 -36.32446289 11.56835938 -38.37133789 11.75195312 C-41.91051303 11.77182724 -41.91051303 11.77182724 -43.12133789 13.18945312 C-38.47080917 13.45877834 -38.47080917 13.45877834 -34.12133789 12.18945312 C-31.82324253 11.88075375 -29.5241366 11.68061664 -27.21508789 11.47070312 C-25.06689856 11.29729812 -25.06689856 11.29729812 -23.12133789 10.18945312 C-19.91947033 9.9229673 -16.70805627 9.95783206 -13.49633789 9.93945312 C-12.17956055 9.90851562 -12.17956055 9.90851562 -10.83618164 9.87695312 C-4.89407219 9.84163598 -0.55923179 10.78106189 4.87866211 13.18945312 C2.87866211 14.18945312 2.87866211 14.18945312 -0.24633789 13.25195312 C-4.67166365 12.03908606 -8.94115468 11.99332781 -13.49633789 12.00195312 C-14.56779053 12.00110718 -14.56779053 12.00110718 -15.66088867 12.00024414 C-19.51897308 11.98272335 -19.51897308 11.98272335 -23.12133789 13.18945312 C-25.41943325 13.4981525 -27.71853918 13.69828961 -30.02758789 13.90820312 C-32.17577722 14.08160813 -32.17577722 14.08160813 -34.12133789 15.18945312 C-36.4953629 15.26061694 -38.87134466 15.27354397 -41.24633789 15.25195312 C-42.52766602 15.24292969 -43.80899414 15.23390625 -45.12915039 15.22460938 C-46.11657227 15.21300781 -47.10399414 15.20140625 -48.12133789 15.18945312 C-48.12133789 15.84945312 -48.12133789 16.50945313 -48.12133789 17.18945312 C-52.08133789 17.18945312 -56.04133789 17.18945312 -60.12133789 17.18945312 C-58.12133789 13.18945312 -58.12133789 13.18945312 -57.12133789 12.18945312 C-55.26846288 12.11718811 -53.41299911 12.10564093 -51.55883789 12.12695312 C-50.54692383 12.13597656 -49.53500977 12.145 -48.49243164 12.15429688 C-47.31874023 12.17169922 -47.31874023 12.17169922 -46.12133789 12.18945312 C-45.79133789 11.19945312 -45.46133789 10.20945312 -45.12133789 9.18945312 C-42.48133789 9.51945312 -39.84133789 9.84945312 -37.12133789 10.18945312 C-37.12133789 9.52945313 -37.12133789 8.86945312 -37.12133789 8.18945312 C-35.97793945 7.99609375 -34.83454102 7.80273438 -33.65649414 7.60351562 C-32.16552753 7.34095547 -30.6746464 7.07790951 -29.18383789 6.81445312 C-28.4290918 6.688125 -27.6743457 6.56179687 -26.89672852 6.43164062 C-24.95850654 6.08397749 -23.03754584 5.64301809 -21.12133789 5.18945312 C-20.79133789 4.52945313 -20.46133789 3.86945312 -20.12133789 3.18945312 C-17.87133789 2.59179688 -17.87133789 2.59179688 -15.12133789 2.12695312 C-2.76158027 0.00261978 -2.76158027 0.00261978 0 0 Z " fill="#B5C8E4" transform="translate(121.121337890625,30.810546875)"/>
<path d="M0 0 C2.31 0 4.62 0 7 0 C4.93660315 2.06339685 3.81556164 2.56591822 1.125 3.5 C-1.69129562 4.50874589 -4.36315637 5.5717097 -7 7 C-7 7.66 -7 8.32 -7 9 C-7.66 9 -8.32 9 -9 9 C-10.09995958 12.29987875 -10.16747591 14.84032287 -10.1875 18.3125 C-10.20167969 19.42238281 -10.21585938 20.53226563 -10.23046875 21.67578125 C-9.98779999 25.17596971 -9.47626515 27.81462031 -8 31 C-2.53250684 34.19329881 5.03181351 33.06651708 11 32 C11.99 31.67 12.98 31.34 14 31 C13.875 32.8125 13.875 32.8125 13 35 C8.92788675 37.85047928 5.18657431 38.57828241 0.32421875 38.4296875 C-3.66154859 37.69282295 -6.99864203 35.69876875 -10 33 C-10 32.34 -10 31.68 -10 31 C-10.66 31 -11.32 31 -12 31 C-15.57404732 25.49001038 -15.6916229 20.35370908 -15 14 C-13.96559837 10.10867959 -12.37026967 6.38727435 -9 4 C-8.01 4 -7.02 4 -6 4 C-6 3.34 -6 2.68 -6 2 C-4.02 2 -2.04 2 0 2 C0 1.34 0 0.68 0 0 Z " fill="#1D4A86" transform="translate(51,159)"/>
<path d="M0 0 C0.99 0 1.98 0 3 0 C3 16.5 3 33 3 50 C2.01 50 1.02 50 0 50 C0 48.02 0 46.04 0 44 C-1.32 44 -2.64 44 -4 44 C-3.125 38.125 -3.125 38.125 -2 37 C-1.54846405 31.91759535 -1.7459861 27.64061686 -4 23 C-4.35858516 21.67323492 -4.7018576 20.34164079 -5 19 C-5.99 19 -6.98 19 -8 19 C-8 18.34 -8 17.68 -8 17 C-8.99 17 -9.98 17 -11 17 C-11 16.34 -11 15.68 -11 15 C-6.56396731 15.65235775 -4.31088218 16.84455891 0 19 C0 12.73 0 6.46 0 0 Z " fill="#13488D" transform="translate(70,146)"/>
<path d="M0 0 C1.32 0 2.64 0 4 0 C4.33 0.66 4.66 1.32 5 2 C5.99 2.33 6.98 2.66 8 3 C12.35803498 9.64678716 12.50370665 15.20339935 12.25 23 C12.23195312 24.06089844 12.21390625 25.12179688 12.1953125 26.21484375 C12.14853748 28.8108572 12.08301142 31.40493528 12 34 C11.01 34.495 11.01 34.495 10 35 C9.3838935 37.25001264 9.3838935 37.25001264 9 39.875 C8.4277221 43.38020217 8.01953816 44.97069276 6 48 C5.31060191 50.32671854 4.64533078 52.66067594 4 55 C3.35800351 56.67632417 2.70105843 58.34750513 2 60 C1.01 60 0.02 60 -1 60 C-0.24984418 52.62346781 0.83441535 45.32168224 2 38 C2.66 38 3.32 38 4 38 C3.62113554 25.38766926 3.62113554 25.38766926 -3 15 C-5.06874034 14.3574765 -5.06874034 14.3574765 -7 14 C-7 13.34 -7 12.68 -7 12 C-7.66 11.67 -8.32 11.34 -9 11 C-4.07710011 11.43437352 -1.51249175 13.643619 2 17 C3.75670469 19.71490725 4 20.71434047 4 24 C4.66 24 5.32 24 6 24 C6 29.28 6 34.56 6 40 C6.66 40 7.32 40 8 40 C7.95875 39.071875 7.9175 38.14375 7.875 37.1875 C8 34 8 34 10 31 C10.42651715 27.91049935 10.32425787 24.8033349 10.3125 21.6875 C10.32861328 20.84509766 10.34472656 20.00269531 10.36132812 19.13476562 C10.36539184 13.93727402 9.69186397 10.58114053 7 6 C7 5.34 7 4.68 7 4 C6.401875 3.896875 5.80375 3.79375 5.1875 3.6875 C2.71756736 2.91123545 1.67748765 1.92911079 0 0 Z " fill="#91AACE" transform="translate(135,34)"/>
<path d="M0 0 C0.99 0 1.98 0 3 0 C3 4.29 3 8.58 3 13 C5.31 13 7.62 13 10 13 C10 14.32 10 15.64 10 17 C8.02 17.33 6.04 17.66 4 18 C3.67 28.56 3.34 39.12 3 50 C2.01 50 1.02 50 0 50 C-0.33 39.44 -0.66 28.88 -1 18 C-2.65 17.67 -4.3 17.34 -6 17 C-6 15.68 -6 14.36 -6 13 C-4.35 12.67 -2.7 12.34 -1 12 C-0.67 8.04 -0.34 4.08 0 0 Z " fill="#1C448B" transform="translate(174,146)"/>
<path d="M0 0 C1.11761719 0.07831055 1.11761719 0.07831055 2.2578125 0.15820312 C4.08894861 0.2873217 5.91953813 0.42415114 7.75 0.5625 C7.75 1.2225 7.75 1.8825 7.75 2.5625 C9.07 3.2225 10.39 3.8825 11.75 4.5625 C11.75 5.5525 11.75 6.5425 11.75 7.5625 C11.316875 7.088125 10.88375 6.61375 10.4375 6.125 C8.72690387 4.32563043 8.72690387 4.32563043 5.75 3.5625 C5.75 2.9025 5.75 2.2425 5.75 1.5625 C4.43 1.8925 3.11 2.2225 1.75 2.5625 C3.53770901 4.63247885 4.70424891 5.54576179 7.3125 6.5 C9.75 7.5625 9.75 7.5625 11.0625 9.3125 C11.75 11.5625 11.75 11.5625 11.75 17.5625 C2.18 17.5625 -7.39 17.5625 -17.25 17.5625 C-16.92 14.9225 -16.59 12.2825 -16.25 9.5625 C-13.8125 7.75 -13.8125 7.75 -11.25 6.5625 C-10.59 5.5725 -9.93 4.5825 -9.25 3.5625 C-7.3046875 3.05078125 -7.3046875 3.05078125 -5.125 2.875 C-3.206875 2.7203125 -3.206875 2.7203125 -1.25 2.5625 C-1.25 1.9025 -1.25 1.2425 -1.25 0.5625 C-5.21 1.2225 -9.17 1.8825 -13.25 2.5625 C-12.25 0.5625 -12.25 0.5625 -10.43066406 -0.07006836 C-6.94737608 -0.656986 -3.5008013 -0.26905452 0 0 Z M-6.25 5.5625 C-6.25 6.2225 -6.25 6.8825 -6.25 7.5625 C-7.0853125 7.7171875 -7.0853125 7.7171875 -7.9375 7.875 C-10.77973129 8.71998768 -12.87528679 9.7814651 -15.25 11.5625 C-15.25 12.8825 -15.25 14.2025 -15.25 15.5625 C-6.67 15.5625 1.91 15.5625 10.75 15.5625 C10.24019039 11.52871634 10.24019039 11.52871634 7.6875 10.3125 C7.048125 10.065 6.40875 9.8175 5.75 9.5625 C5.75 8.9025 5.75 8.2425 5.75 7.5625 C2.54619983 5.42663322 1.73060033 5.33117825 -1.9375 5.4375 C-3.14986328 5.46457031 -3.14986328 5.46457031 -4.38671875 5.4921875 C-5.00160156 5.51539063 -5.61648437 5.53859375 -6.25 5.5625 Z " fill="#9CB8DF" transform="translate(104.25,159.4375)"/>
<path d="M0 0 C1.65 0 3.3 0 5 0 C5 0.66 5 1.32 5 2 C5.556875 2.04125 6.11375 2.0825 6.6875 2.125 C10.44853127 3.54809291 11.82888588 5.65531069 14 9 C14.495 13.95 14.495 13.95 15 19 C4.44 19 -6.12 19 -17 19 C-17 18.01 -17 17.02 -17 16 C-7.76 16 1.48 16 11 16 C10.34 12.7 9.68 9.4 9 6 C7.02 5.34 5.04 4.68 3 4 C3 3.34 3 2.68 3 2 C2.01 1.67 1.02 1.34 0 1 C0 0.67 0 0.34 0 0 Z " fill="#184281" transform="translate(105,161)"/>
<path d="M0 0 C1.32 0 2.64 0 4 0 C4 13.2 4 26.4 4 40 C2.68 40 1.36 40 0 40 C0 26.8 0 13.6 0 0 Z " fill="#969798" transform="translate(86,99)"/>
<path d="M0 0 C4.875 2.75 4.875 2.75 6 5 C6.08510205 6.9593604 6.10717656 8.92162794 6.09765625 10.8828125 C6.09443359 12.04941406 6.09121094 13.21601563 6.08789062 14.41796875 C6.07951172 15.64128906 6.07113281 16.86460937 6.0625 18.125 C6.05798828 19.35605469 6.05347656 20.58710938 6.04882812 21.85546875 C6.0370133 24.90369392 6.02054028 27.95182314 6 31 C3.29120665 32.35439668 0.99066732 32.06501451 -2 32 C-2.1431032 28.06732611 -2.28550028 24.13462735 -2.42724609 20.2019043 C-2.49930096 18.20685496 -2.57191337 16.21182579 -2.64453125 14.21679688 C-2.68964844 12.96318359 -2.73476562 11.70957031 -2.78125 10.41796875 C-2.82314453 9.26063232 -2.86503906 8.1032959 -2.90820312 6.91088867 C-2.97031439 4.94133398 -3 2.97053381 -3 1 C-1 3 -1 3 -0.77294922 5.70556641 C-0.78342285 6.82624512 -0.79389648 7.94692383 -0.8046875 9.1015625 C-0.81113281 10.31328125 -0.81757813 11.525 -0.82421875 12.7734375 C-0.84097656 14.04445312 -0.85773438 15.31546875 -0.875 16.625 C-0.88402344 17.90375 -0.89304688 19.1825 -0.90234375 20.5 C-0.92597697 23.66685167 -0.95892371 26.83333424 -1 30 C-0.01 30 0.98 30 2 30 C1.86138974 25.56224325 1.71288136 21.12487223 1.5625 16.6875 C1.52318359 15.42486328 1.48386719 14.16222656 1.44335938 12.86132812 C1.38051758 11.04858398 1.38051758 11.04858398 1.31640625 9.19921875 C1.27974854 8.08377686 1.24309082 6.96833496 1.20532227 5.8190918 C1.11068791 2.92126429 1.11068791 2.92126429 0 0 Z " fill="#A7BFDD" transform="translate(156,166)"/>
<path d="M0 0 C0 0.66 0 1.32 0 2 C0.61875 1.835 1.2375 1.67 1.875 1.5 C6.25470729 0.79924683 10.57428989 0.92265749 15 1 C15.33 1.66 15.66 2.32 16 3 C15.34773438 2.97679687 14.69546875 2.95359375 14.0234375 2.9296875 C8.91301097 2.82416247 4.79574967 2.98073698 0 5 C0 4.34 0 3.68 0 3 C-1.32 3 -2.64 3 -4 3 C-4 14.88 -4 26.76 -4 39 C-3.01 39 -2.02 39 -1 39 C-1 30.09 -1 21.18 -1 12 C-0.34 12 0.32 12 1 12 C1.33 11.34 1.66 10.68 2 10 C2 11.32 2 12.64 2 14 C1.34 14 0.68 14 0 14 C0 22.58 0 31.16 0 40 C-1.65 40 -3.3 40 -5 40 C-7.08204358 37.91795642 -6.25821292 33.4661444 -6.31640625 30.58984375 C-6.33718735 29.74780899 -6.35796844 28.90577423 -6.37937927 28.03822327 C-6.44496812 25.33806821 -6.50380276 22.63781283 -6.5625 19.9375 C-6.60567637 18.11131759 -6.64929036 16.28514546 -6.69335938 14.45898438 C-6.80065894 9.97276008 -6.90189966 5.4864345 -7 1 C-4.53721199 -0.231394 -2.7204945 -0.07159196 0 0 Z " fill="#89A5CC" transform="translate(134,157)"/>
<path d="M0 0 C0.33 0 0.66 0 1 0 C2.24795354 12.65781446 2.10177436 25.29542824 2 38 C0.68 37.67 -0.64 37.34 -2 37 C-2 35.35 -2 33.7 -2 32 C-3.32 31.67 -4.64 31.34 -6 31 C-5.67 29.35 -5.34 27.7 -5 26 C-4.01 26 -3.02 26 -2 26 C-2.14120016 23.41633755 -2.28778333 20.83317115 -2.4375 18.25 C-2.47681641 17.52039063 -2.51613281 16.79078125 -2.55664062 16.0390625 C-2.76147098 12.5727027 -3.0852002 9.34666974 -4 6 C-3.01 5.67 -2.02 5.34 -1 5 C-0.67 3.35 -0.34 1.7 0 0 Z " fill="#98989A" transform="translate(176,101)"/>
<path d="M0 0 C1.32 0 2.64 0 4 0 C4 12.54 4 25.08 4 38 C3.67 38 3.34 38 3 38 C2.97494385 37.35039307 2.9498877 36.70078613 2.92407227 36.03149414 C2.80686149 33.04168912 2.68471081 30.05210465 2.5625 27.0625 C2.52318359 26.04091797 2.48386719 25.01933594 2.44335938 23.96679688 C2.19279999 17.93409791 1.74356945 11.992295 1 6 C-0.32 6.33 -1.64 6.66 -3 7 C-2.67257813 7.48984375 -2.34515625 7.9796875 -2.0078125 8.484375 C-0.58227411 12.04269563 -0.78845652 15.48203011 -0.875 19.25 C-0.88402344 19.99507812 -0.89304688 20.74015625 -0.90234375 21.5078125 C-0.92581642 23.33868059 -0.96168475 25.16938238 -1 27 C-1.33 27 -1.66 27 -2 27 C-2.03738281 25.97519531 -2.07476562 24.95039062 -2.11328125 23.89453125 C-2.17897079 22.53381938 -2.24541709 21.17314389 -2.3125 19.8125 C-2.33505859 19.13896484 -2.35761719 18.46542969 -2.38085938 17.77148438 C-2.61497082 13.4084983 -3.19879467 10.40146361 -6 7 C-11.63426778 4.06777893 -17.76697345 3.65372075 -24 4 C-23.67 3.34 -23.34 2.68 -23 2 C-16.18401613 1.66721236 -11.07877934 1.75798435 -5 5 C-5 4.34 -5 3.68 -5 3 C-3.68 3.33 -2.36 3.66 -1 4 C-0.67 2.68 -0.34 1.36 0 0 Z " fill="#B8B8B9" transform="translate(175,100)"/>
<path d="M0 0 C0.33 0 0.66 0 1 0 C1.06058594 0.89203125 1.12117187 1.7840625 1.18359375 2.703125 C1.26738281 3.87359375 1.35117188 5.0440625 1.4375 6.25 C1.55931641 7.99023438 1.55931641 7.99023438 1.68359375 9.765625 C1.93247787 12.30977376 2.28114942 14.55953248 3 17 C4.32 17 5.64 17 7 17 C7 17.66 7 18.32 7 19 C7.66 19 8.32 19 9 19 C9.33 19.66 9.66 20.32 10 21 C14.95 21 19.9 21 25 21 C25 20.34 25 19.68 25 19 C26.65 18.67 28.3 18.34 30 18 C28.75023244 21.65316671 28.32901247 22.78065836 25 25 C22.39754502 25.14221065 19.90882316 25.18802932 17.3125 25.125 C16.61060547 25.11597656 15.90871094 25.10695312 15.18554688 25.09765625 C13.45688475 25.07413704 11.72839855 25.03826713 10 25 C10 24.34 10 23.68 10 23 C9.41605469 22.89300781 8.83210937 22.78601563 8.23046875 22.67578125 C5.70298287 21.91001057 4.31013992 20.89914375 2.3125 19.1875 C1.71050781 18.68605469 1.10851562 18.18460938 0.48828125 17.66796875 C-1.18775622 15.78957505 -1.6002351 14.45722156 -2 12 C-1.34 12 -0.68 12 0 12 C0 8.04 0 4.08 0 0 Z " fill="#8E8F90" transform="translate(141,114)"/>
<path d="M0 0 C1.65 0 3.3 0 5 0 C5.33 10.56 5.66 21.12 6 32 C7.98 32.33 9.96 32.66 12 33 C12 22.11 12 11.22 12 0 C13.65 0 15.3 0 17 0 C16.01 0.495 16.01 0.495 15 1 C14.97494385 1.9286084 14.9498877 2.8572168 14.92407227 3.81396484 C14.82902068 7.25435804 14.72978293 10.69457713 14.62768555 14.13476562 C14.58433411 15.62462641 14.54265916 17.11453695 14.50268555 18.60449219 C14.44498785 20.74429327 14.38129245 22.88384385 14.31640625 25.0234375 C14.26141968 26.95582275 14.26141968 26.95582275 14.20532227 28.92724609 C14 32 14 32 13 34 C6.84765625 34.09765625 6.84765625 34.09765625 5 34 C4 33 4 33 3.88647461 29.94897461 C3.88663366 28.60008729 3.89232388 27.25119386 3.90234375 25.90234375 C3.90446617 24.83905602 3.90446617 24.83905602 3.90663147 23.75428772 C3.91224557 21.48198288 3.92480037 19.20977525 3.9375 16.9375 C3.94251319 15.40039204 3.94707641 13.86328255 3.95117188 12.32617188 C3.96221958 8.55074358 3.97949359 4.77538829 4 1 C2.68 0.67 1.36 0.34 0 0 Z " fill="#E0EEFA" transform="translate(167,164)"/>
<path d="M0 0 C0.66 0 1.32 0 2 0 C2 6.27 2 12.54 2 19 C-1.98300973 18.00424757 -5.26137967 16.65362053 -9 15 C-9 15.66 -9 16.32 -9 17 C-8.01 17 -7.02 17 -6 17 C-6 17.66 -6 18.32 -6 19 C-5.01 19 -4.02 19 -3 19 C-3.33 19.66 -3.66 20.32 -4 21 C-4.99 20.67 -5.98 20.34 -7 20 C-7 19.34 -7 18.68 -7 18 C-7.83144531 18.0721875 -8.66289063 18.144375 -9.51953125 18.21875 C-11.14955078 18.35796875 -11.14955078 18.35796875 -12.8125 18.5 C-13.89144531 18.5928125 -14.97039063 18.685625 -16.08203125 18.78125 C-19 19 -19 19 -22 19 C-15.71428571 14.57142857 -15.71428571 14.57142857 -12 14 C-13.65 13.67 -15.3 13.34 -17 13 C-17 13.66 -17 14.32 -17 15 C-18.98 15 -20.96 15 -23 15 C-21.68 14.67 -20.36 14.34 -19 14 C-19 13.34 -19 12.68 -19 12 C-11.51538812 11.4374822 -6.67419753 12.55525289 0 16 C0 10.72 0 5.44 0 0 Z " fill="#6182AF" transform="translate(68,146)"/>
<path d="M0 0 C4.75 0.75 4.75 0.75 7 3 C7 4.32 7 5.64 7 7 C7.66 7 8.32 7 9 7 C9.99 11.95 10.98 16.9 12 22 C11.34 22 10.68 22 10 22 C10.33 23.98 10.66 25.96 11 28 C8.74943642 24.62415462 7.4484304 21.15528355 6.0625 17.375 C5.79743652 16.66021484 5.53237305 15.94542969 5.25927734 15.20898438 C3.40172992 10.17179985 1.64302259 5.11162582 0 0 Z " fill="#A9A8AA" transform="translate(34,85)"/>
<path d="M0 0 C2.97 0.495 2.97 0.495 6 1 C6.061875 1.94875 6.12375 2.8975 6.1875 3.875 C6.77614351 8.32152252 8.84133287 11.81283528 11.0390625 15.66796875 C12.12834354 18.31146787 12.00173581 19.37496941 11 22 C10.67 21.67 10.34 21.34 10 21 C9.34 21.66 8.68 22.32 8 23 C5.72968427 18.78369936 4.13999492 14.61049187 2.74609375 10.05078125 C1.99630376 7.73791407 1.99630376 7.73791407 0 5 C-0.125 2.3125 -0.125 2.3125 0 0 Z " fill="#B5B5B5" transform="translate(99,99)"/>
<path d="M0 0 C0.99 0 1.98 0 3 0 C3 16.5 3 33 3 50 C2.01 50 1.02 50 0 50 C0 48.02 0 46.04 0 44 C-1.32 44 -2.64 44 -4 44 C-3.125 38.125 -3.125 38.125 -2 37 C-1.92773498 35.14712498 -1.9161878 33.29166122 -1.9375 31.4375 C-1.94652344 30.42558594 -1.95554687 29.41367188 -1.96484375 28.37109375 C-1.97644531 27.58863281 -1.98804687 26.80617187 -2 26 C-1.34 26.33 -0.68 26.66 0 27 C0.33 30.3 0.66 33.6 1 37 C1.33 25.12 1.66 13.24 2 1 C1.34 0.67 0.68 0.34 0 0 Z " fill="#305F9A" transform="translate(70,146)"/>
<path d="M0 0 C1.9375 0.375 1.9375 0.375 4 1 C5.31164842 3.62329684 5.13262846 5.63698625 5.125 8.5625 C5.12886719 10.04943359 5.12886719 10.04943359 5.1328125 11.56640625 C5 14 5 14 4 15 C1.28123141 15.10293779 -1.40616657 15.14051403 -4.125 15.125 C-4.92728027 15.12306641 -5.72956055 15.12113281 -6.55615234 15.11914062 C-14.06566158 15.06580815 -21.51695254 14.61806882 -29 14 C-27.68753462 17.44094186 -26.33411133 20.13540882 -24 23 C-26.46800047 21.84826645 -28.04783565 20.95216435 -30 19 C-30 17.02 -30 15.04 -30 13 C-19.11 13 -8.22 13 3 13 C1.7670815 6.42907265 1.7670815 6.42907265 0 0 Z " fill="#A4BDD7" transform="translate(117,167)"/>
<path d="M0 0 C3.33855319 2.99318562 5.27398609 5.85756662 7 10 C7 11.32 7 12.64 7 14 C7.99 14 8.98 14 10 14 C10.28875 13.195625 10.5775 12.39125 10.875 11.5625 C12 9 12 9 14 8 C13.88541307 9.43836751 13.75790884 10.87570966 13.625 12.3125 C13.55539063 13.11300781 13.48578125 13.91351563 13.4140625 14.73828125 C13 17 13 17 11 20 C8.375 20.1875 8.375 20.1875 6 20 C2.57589003 13.2402257 0.37374732 7.59952888 0 0 Z " fill="#8A8C8D" transform="translate(108,119)"/>
<path d="M0 0 C4.14427102 -0.04976954 8.28837953 -0.08589288 12.43286133 -0.10986328 C13.84011876 -0.11986557 15.2473557 -0.13347178 16.65454102 -0.15087891 C18.68771448 -0.17538366 20.72061106 -0.18654083 22.75390625 -0.1953125 C23.97408447 -0.20578613 25.1942627 -0.21625977 26.45141602 -0.22705078 C30.30506028 0.01951882 33.34213 0.81421825 37 2 C37 2.33 37 2.66 37 3 C30.565 3.495 30.565 3.495 24 4 C24 3.34 24 2.68 24 2 C20.85354599 2.11161178 17.70810843 2.24180557 14.5625 2.375 C13.68400391 2.4059375 12.80550781 2.436875 11.90039062 2.46875 C6.04416673 2.72806619 0.68844577 3.57644185 -5 5 C-4.34 4.01 -3.68 3.02 -3 2 C-2.01 2 -1.02 2 0 2 C0 1.34 0 0.68 0 0 Z " fill="#9FB7D6" transform="translate(44,28)"/>
<path d="M0 0 C0 0.66 0 1.32 0 2 C7.26 2 14.52 2 22 2 C22 2.66 22 3.32 22 4 C21.01604248 3.99214478 21.01604248 3.99214478 20.01220703 3.98413086 C17.04981437 3.96338728 14.08743697 3.95034824 11.125 3.9375 C10.09246094 3.92912109 9.05992188 3.92074219 7.99609375 3.91210938 C7.00996094 3.90888672 6.02382812 3.90566406 5.0078125 3.90234375 C4.09660645 3.89710693 3.18540039 3.89187012 2.24658203 3.88647461 C-0.03687509 3.85114435 -0.03687509 3.85114435 -2 5 C-4.29809536 5.30869938 -6.59720129 5.50883648 -8.90625 5.71875 C-11.05443933 5.892155 -11.05443933 5.892155 -13 7 C-15.04055005 7.07065617 -17.08334257 7.08421976 -19.125 7.0625 C-20.22070312 7.05347656 -21.31640625 7.04445313 -22.4453125 7.03515625 C-23.70988281 7.01775391 -23.70988281 7.01775391 -25 7 C-25 6.67 -25 6.34 -25 6 C-20.54142283 4.35736631 -16.12305154 3.39159803 -11.47265625 2.5078125 C-9.27312865 2.05609277 -7.15148895 1.51281092 -5 0.875 C-2 0 -2 0 0 0 Z " fill="#2E558E" transform="translate(98,38)"/>
<path d="M0 0 C0.66 0 1.32 0 2 0 C2.02686553 1.97909398 2.04633375 3.95828971 2.0625 5.9375 C2.07410156 7.03964844 2.08570313 8.14179688 2.09765625 9.27734375 C2 12 2 12 1 13 C-0.66617115 13.04063832 -2.33388095 13.042721 -4 13 C-4 14.32 -4 15.64 -4 17 C-2.35 17 -0.7 17 1 17 C1 27.89 1 38.78 1 50 C0.67 50 0.34 50 0 50 C0 39.44 0 28.88 0 18 C-1.65 18 -3.3 18 -5 18 C-6 17 -6 17 -6.125 14.5 C-6 12 -6 12 -5 11 C-3.35 11 -1.7 11 0 11 C0 7.37 0 3.74 0 0 Z " fill="#A7BDDD" transform="translate(172,146)"/>
<path d="M0 0 C1.31677734 -0.0309375 1.31677734 -0.0309375 2.66015625 -0.0625 C8.6022657 -0.09781714 12.9371061 0.84160876 18.375 3.25 C16.375 4.25 16.375 4.25 13.25 3.3125 C8.82467424 2.09963294 4.55518321 2.05387468 0 2.0625 C-1.07145264 2.06165405 -1.07145264 2.06165405 -2.16455078 2.06079102 C-6.02263519 2.04327022 -6.02263519 2.04327022 -9.625 3.25 C-11.92309536 3.55869938 -14.22220129 3.75883648 -16.53125 3.96875 C-18.67943933 4.142155 -18.67943933 4.142155 -20.625 5.25 C-22.21762066 5.40175549 -23.81564856 5.49900325 -25.4140625 5.56640625 C-26.82558594 5.62924805 -26.82558594 5.62924805 -28.265625 5.69335938 C-29.74289063 5.75233398 -29.74289063 5.75233398 -31.25 5.8125 C-32.24257812 5.85568359 -33.23515625 5.89886719 -34.2578125 5.94335938 C-36.71339838 6.04961069 -39.16908703 6.15164964 -41.625 6.25 C-40.35766602 4.76611328 -40.35766602 4.76611328 -38.625 3.25 C-35.85845482 3.05840296 -33.31574668 3.01302003 -30.5625 3.125 C-25.44425085 3.52397405 -25.44425085 3.52397405 -20.625 2.25 C-18.32690464 1.94130062 -16.02779871 1.74116352 -13.71875 1.53125 C-2.42265067 0.01386352 -2.42265067 0.01386352 0 0 Z " fill="#91AACE" transform="translate(107.625,40.75)"/>
<path d="M0 0 C1.49729217 2.99458434 1.05333251 5.73255143 1 9.0625 C0.93955831 14.79415757 1.20303218 20.32160427 2 26 C2.66 26 3.32 26 4 26 C5.19287411 29.87684087 6 32.91621923 6 37 C4.11328125 36.73046875 4.11328125 36.73046875 2 36 C-0.34845758 32.44763998 -1.09870482 28.87189261 -0.625 24.6875 C-0.41875 23.800625 -0.2125 22.91375 0 22 C-0.33 21.01 -0.66 20.02 -1 19 C-1.09137566 17.60384892 -1.13065667 16.20382391 -1.1328125 14.8046875 C-1.13410156 14.00675781 -1.13539062 13.20882812 -1.13671875 12.38671875 C-1.13285156 11.55785156 -1.12898438 10.72898437 -1.125 9.875 C-1.12886719 9.03839844 -1.13273437 8.20179687 -1.13671875 7.33984375 C-1.12664874 1.12664874 -1.12664874 1.12664874 0 0 Z " fill="#7491B7" transform="translate(30,44)"/>
<path d="M0 0 C11.22 0 22.44 0 34 0 C34 0.99 34 1.98 34 3 C33.13487793 2.84152588 32.26975586 2.68305176 31.37841797 2.51977539 C28.20209848 2.0310932 25.15434061 1.79938342 21.9453125 1.68359375 C20.83671875 1.64169922 19.728125 1.59980469 18.5859375 1.55664062 C17.44382812 1.51732422 16.30171875 1.47800781 15.125 1.4375 C13.9596875 1.39431641 12.794375 1.35113281 11.59375 1.30664062 C8.72927375 1.20098371 5.86471679 1.09888201 3 1 C3 1.66 3 2.32 3 3 C2.01 3 1.02 3 0 3 C0 3.66 0 4.32 0 5 C-1.95927063 6.7143618 -3.95880212 8.38405168 -6 10 C-6.66 9.67 -7.32 9.34 -8 9 C-6.75 6.5 -6.75 6.5 -5 4 C-3.68 4 -2.36 4 -1 4 C-0.67 2.68 -0.34 1.36 0 0 Z " fill="#ABC3DF" transform="translate(34,20)"/>
<path d="M0 0 C1.0828125 0.99 1.0828125 0.99 2.1875 2 C7.08331976 5.29120897 13.3682632 4.78238146 19 4 C21.83298599 2.58780528 21.83298599 2.58780528 24 1 C24 1.99 24 2.98 24 4 C25.32 4 26.64 4 28 4 C28 5.98 28 7.96 28 10 C28.99 10.33 29.98 10.66 31 11 C28.525 10.505 28.525 10.505 26 10 C26 9.01 26 8.02 26 7 C24.68 7.33 23.36 7.66 22 8 C22.33 6.68 22.66 5.36 23 4 C22.01 4.66 21.02 5.32 20 6 C13.86974174 7.4717046 8.65417738 7.03397394 2.71484375 5.08203125 C1 4 1 4 0.25390625 1.88671875 C0.17011719 1.26410156 0.08632813 0.64148438 0 0 Z " fill="#7A9AC4" transform="translate(42,186)"/>
<path d="M0 0 C2.475 0.495 2.475 0.495 5 1 C4.84817368 3.65696068 4.52675976 5.44234524 2.66796875 7.41015625 C-2.29806385 11.55455815 -4.72534166 12.12067871 -11.125 12.0625 C-12.40632813 12.05347656 -13.68765625 12.04445312 -15.0078125 12.03515625 C-15.99523437 12.02355469 -16.98265625 12.01195312 -18 12 C-18 11.34 -18 10.68 -18 10 C-20.97 9.505 -20.97 9.505 -24 9 C-24.33 7.68 -24.66 6.36 -25 5 C-24.29875 5.3609375 -23.5975 5.721875 -22.875 6.09375 C-16.94806029 8.9927966 -12.60131869 11.08218339 -6 10 C-1.67873071 7.98136088 1.33881724 5.99177415 4 2 C2.35 2.33 0.7 2.66 -1 3 C-0.67 2.01 -0.34 1.02 0 0 Z " fill="#A9BCD6" transform="translate(112,186)"/>
<path d="M0 0 C-2.0358559 4.81202304 -5.28422192 6.95430533 -10 9 C-12.82219835 9.38745435 -15.13596442 9.25571746 -18 9 C-18 8.67 -18 8.34 -18 8 C-16.35 8 -14.7 8 -13 8 C-13 7.34 -13 6.68 -13 6 C-14.32 5.67 -15.64 5.34 -17 5 C-12.545 4.505 -12.545 4.505 -8 4 C-7.67 3.01 -7.34 2.02 -7 1 C-4 0 -4 0 0 0 Z " fill="#3D6499" transform="translate(116,188)"/>
<path d="M0 0 C0.33 0 0.66 0 1 0 C1 12.21 1 24.42 1 37 C0.67 37 0.34 37 0 37 C-1.08017565 23.43993784 -1.08017565 23.43993784 -0.875 17.9375 C-1.00556276 13.82477291 -1.68409051 12.28087178 -4 9 C-4 8.01 -4 7.02 -4 6 C-3.01 5.67 -2.02 5.34 -1 5 C-0.67 3.35 -0.34 1.7 0 0 Z " fill="#616365" transform="translate(176,101)"/>
<path d="M0 0 C0.74507812 0.05220703 1.49015625 0.10441406 2.2578125 0.15820312 C4.08894861 0.2873217 5.91953813 0.42415114 7.75 0.5625 C7.75 1.2225 7.75 1.8825 7.75 2.5625 C9.07 3.2225 10.39 3.8825 11.75 4.5625 C11.75 5.5525 11.75 6.5425 11.75 7.5625 C11.316875 7.088125 10.88375 6.61375 10.4375 6.125 C8.72690387 4.32563043 8.72690387 4.32563043 5.75 3.5625 C5.75 2.9025 5.75 2.2425 5.75 1.5625 C4.43 1.8925 3.11 2.2225 1.75 2.5625 C2.41 3.2225 3.07 3.8825 3.75 4.5625 C-0.87 4.8925 -5.49 5.2225 -10.25 5.5625 C-9.92 4.9025 -9.59 4.2425 -9.25 3.5625 C-6.60139573 2.96894386 -3.95802678 2.82040731 -1.25 2.5625 C-1.25 1.9025 -1.25 1.2425 -1.25 0.5625 C-5.21 1.2225 -9.17 1.8825 -13.25 2.5625 C-12.25 0.5625 -12.25 0.5625 -10.43066406 -0.07006836 C-6.94737608 -0.656986 -3.5008013 -0.26905452 0 0 Z " fill="#6785B0" transform="translate(104.25,159.4375)"/>
<path d="M0 0 C1.06863281 0.01804688 2.13726562 0.03609375 3.23828125 0.0546875 C4.04652344 0.07789063 4.85476562 0.10109375 5.6875 0.125 C5.6875 0.785 5.6875 1.445 5.6875 2.125 C7.0075 2.455 8.3275 2.785 9.6875 3.125 C8.6975 3.62 8.6975 3.62 7.6875 4.125 C6.98625 3.815625 6.285 3.50625 5.5625 3.1875 C0.36091526 1.2651752 -4.98106626 1.79214157 -10.3125 3.125 C-10.3125 4.115 -10.3125 5.105 -10.3125 6.125 C-10.9725 6.125 -11.6325 6.125 -12.3125 6.125 C-12.3125 7.115 -12.3125 8.105 -12.3125 9.125 C-12.9725 9.125 -13.6325 9.125 -14.3125 9.125 C-14.3125 12.095 -14.3125 15.065 -14.3125 18.125 C-13.6525 18.125 -12.9925 18.125 -12.3125 18.125 C-12.6425 19.445 -12.9725 20.765 -13.3125 22.125 C-15.3125 20.125 -15.3125 20.125 -15.578125 17.19140625 C-15.57296875 16.03511719 -15.5678125 14.87882813 -15.5625 13.6875 C-15.56765625 12.53378906 -15.5728125 11.38007813 -15.578125 10.19140625 C-15.3125 7.125 -15.3125 7.125 -13.3125 4.125 C-12.6525 4.125 -11.9925 4.125 -11.3125 4.125 C-11.3125 3.465 -11.3125 2.805 -11.3125 2.125 C-7.38392246 0.27368517 -4.32474888 -0.09504943 0 0 Z " fill="#BDD7F2" transform="translate(55.3125,163.875)"/>
<path d="M0 0 C0.66 0 1.32 0 2 0 C5.38391027 6.28440479 7.8606229 12.93586201 9 20 C8.67 19.01 8.34 18.02 8 17 C7.34 17 6.68 17 6 17 C5.67 18.32 5.34 19.64 5 21 C2.71046164 14.01424576 0.57648075 7.35012956 0 0 Z " fill="#929394" transform="translate(44,107)"/>
<path d="M0 0 C5.94 0 11.88 0 18 0 C18 0.33 18 0.66 18 1 C16.46279297 1.09087891 16.46279297 1.09087891 14.89453125 1.18359375 C13.53384305 1.26805026 12.17316657 1.35269567 10.8125 1.4375 C10.13896484 1.47681641 9.46542969 1.51613281 8.77148438 1.55664062 C3.32451782 1.89330244 3.32451782 1.89330244 -2 3 C-3.36020151 4.96758273 -3.36020151 4.96758273 -4 7 C-4.66 7 -5.32 7 -6 7 C-6.12375 7.9075 -6.2475 8.815 -6.375 9.75 C-7 13 -7 13 -8 14.9375 C-9.41875825 17.86368889 -9.62999496 20.79328966 -10 24 C-10.33 24 -10.66 24 -11 24 C-11.2358396 18.22192976 -10.86783046 13.48675196 -9 8 C-8.34 8 -7.68 8 -7 8 C-7 7.34 -7 6.68 -7 6 C-5.1875 3.875 -5.1875 3.875 -3 2 C-2.01 2 -1.02 2 0 2 C0 1.34 0 0.68 0 0 Z " fill="#C6C7C6" transform="translate(148,99)"/>
<path d="M0 0 C1.32 0.66 2.64 1.32 4 2 C1.60175053 4.39824947 0.72664782 4.31436204 -2.5625 4.5625 C-5.58047788 4.58449303 -5.58047788 4.58449303 -8 6 C-6.35 6.33 -4.7 6.66 -3 7 C-3 7.33 -3 7.66 -3 8 C-6.96 8 -10.92 8 -15 8 C-13 4 -13 4 -12 3 C-10.14712498 2.92773498 -8.29166122 2.9161878 -6.4375 2.9375 C-5.42558594 2.94652344 -4.41367188 2.95554688 -3.37109375 2.96484375 C-2.19740234 2.98224609 -2.19740234 2.98224609 -1 3 C-0.67 2.01 -0.34 1.02 0 0 Z " fill="#D6E1F0" transform="translate(76,40)"/>
<path d="M0 0 C-0.125 1.8125 -0.125 1.8125 -1 4 C-5.71046509 7.29732556 -10.42142665 7.8256712 -16 7 C-18.5625 5.5 -18.5625 5.5 -20 4 C-15.66831683 3.73747375 -12.1196377 4.70756464 -8 6 C-8 5.34 -8 4.68 -8 4 C-9.98 4 -11.96 4 -14 4 C-14.33 3.34 -14.66 2.68 -15 2 C-13.96875 2.04125 -12.9375 2.0825 -11.875 2.125 C-7.65861619 1.98898762 -4.0676007 0 0 0 Z " fill="#2D598F" transform="translate(65,190)"/>
<path d="M0 0 C0.598125 0.20625 1.19625 0.4125 1.8125 0.625 C1.36169665 2.2201503 0.90844611 3.81463591 0.4453125 5.40625 C-0.01662657 7.02588822 -0.45631169 8.65192108 -0.8828125 10.28125 C-1.25019531 11.62703125 -1.25019531 11.62703125 -1.625 13 C-1.85058594 13.85335937 -2.07617188 14.70671875 -2.30859375 15.5859375 C-2.59863281 16.25882813 -2.88867188 16.93171875 -3.1875 17.625 C-4.1775 17.955 -5.1675 18.285 -6.1875 18.625 C-6.1875 17.965 -6.1875 17.305 -6.1875 16.625 C-5.5275 16.625 -4.8675 16.625 -4.1875 16.625 C-4.01961627 15.00012529 -3.85323213 13.37509558 -3.6875 11.75 C-3.5946875 10.84507813 -3.501875 9.94015625 -3.40625 9.0078125 C-3.15702705 6.69186789 -3.15702705 6.69186789 -3.1875 4.625 C-3.8475 5.285 -4.5075 5.945 -5.1875 6.625 C-5.375 4.25 -5.375 4.25 -5.1875 1.625 C-2.1875 -0.375 -2.1875 -0.375 0 0 Z " fill="#DFE2E5" transform="translate(134.1875,98.375)"/>
<path d="M0 0 C0.33 0 0.66 0 1 0 C0.40546697 12.66970387 0.40546697 12.66970387 -3 18 C-3.99 18 -4.98 18 -6 18 C-6 16.35 -6 14.7 -6 13 C-5.34 13 -4.68 13 -4 13 C-3.87882813 12.39671875 -3.75765625 11.7934375 -3.6328125 11.171875 C-3.46523437 10.37265625 -3.29765625 9.5734375 -3.125 8.75 C-2.88136719 7.56664063 -2.88136719 7.56664063 -2.6328125 6.359375 C-2.00849925 4.03168856 -1.15161458 2.10968048 0 0 Z " fill="#265384" transform="translate(140,76)"/>
<path d="M0 0 C-0.99 1.485 -0.99 1.485 -2 3 C-2.99 3 -3.98 3 -5 3 C-5 3.66 -5 4.32 -5 5 C-6.2684375 4.5359375 -6.2684375 4.5359375 -7.5625 4.0625 C-10.95443528 3.64510957 -10.95443528 3.64510957 -12.95703125 5.4921875 C-14.71404657 7.27425192 -16.3873611 9.08678048 -18 11 C-18 8 -18 8 -16.20703125 5.9921875 C-15.41683594 5.29351562 -14.62664062 4.59484375 -13.8125 3.875 C-13.03519531 3.17117187 -12.25789063 2.46734375 -11.45703125 1.7421875 C-7.61877055 -0.97937732 -4.4473578 -1.4824526 0 0 Z " fill="#C5C5C5" transform="translate(100,62)"/>
<path d="M0 0 C1.32 0 2.64 0 4 0 C5.76462683 3.08809695 6 4.23312136 6 8 C6.66 8 7.32 8 8 8 C8 10.64 8 13.28 8 16 C3.41031936 12.39382235 1.76494951 7.38872881 0 2 C0 1.34 0 0.68 0 0 Z " fill="#969698" transform="translate(34,85)"/>
<path d="M0 0 C0.66 0 1.32 0 2 0 C2.99 3.3 3.98 6.6 5 10 C6.65 9.34 8.3 8.68 10 8 C9.67 9.65 9.34 11.3 9 13 C8.01 13.33 7.02 13.66 6 14 C2.87731597 11.91821065 2.49581425 11.44328863 1.3125 8.125 C1.06113281 7.44695312 0.80976562 6.76890625 0.55078125 6.0703125 C0 4 0 4 0 0 Z " fill="#77797A" transform="translate(50,124)"/>
<path d="M0 0 C1.23922223 3.71766668 0.57018942 5.43889537 -0.4375 9.1875 C-0.72496094 10.27417969 -1.01242188 11.36085938 -1.30859375 12.48046875 C-1.65083984 13.72763672 -1.65083984 13.72763672 -2 15 C-2.99 15 -3.98 15 -5 15 C-5 15.99 -5 16.98 -5 18 C-5.66 18 -6.32 18 -7 18 C-6.52060632 13.28596212 -6.03165952 9.33420699 -4 5 C-3.34 5 -2.68 5 -2 5 C-1.34 3.35 -0.68 1.7 0 0 Z " fill="#89888A" transform="translate(132,100)"/>
<path d="M0 0 C0.66 0 1.32 0 2 0 C2 6.27 2 12.54 2 19 C-2.19174654 17.95206337 -3.21592961 17.08236365 -6 14 C-4.02 14.66 -2.04 15.32 0 16 C0 10.72 0 5.44 0 0 Z " fill="#8DA6CB" transform="translate(68,146)"/>
<path d="M0 0 C0.33 0 0.66 0 1 0 C1.06058594 0.89203125 1.12117187 1.7840625 1.18359375 2.703125 C1.26738281 3.87359375 1.35117188 5.0440625 1.4375 6.25 C1.55931641 7.99023438 1.55931641 7.99023438 1.68359375 9.765625 C1.93247787 12.30977376 2.28114942 14.55953248 3 17 C4.32 17 5.64 17 7 17 C7 17.66 7 18.32 7 19 C7.66 19.33 8.32 19.66 9 20 C8.34 20 7.68 20 7 20 C6.67 20.66 6.34 21.32 6 22 C4.84481082 21.09515208 3.70114594 20.1755794 2.5625 19.25 C1.92441406 18.73953125 1.28632813 18.2290625 0.62890625 17.703125 C-1.18810554 15.80332371 -1.60423197 14.56413092 -2 12 C-1.34 12 -0.68 12 0 12 C0 8.04 0 4.08 0 0 Z " fill="#9C9D9D" transform="translate(141,114)"/>
<path d="M0 0 C1.69834931 3.39669862 0.89986581 7.22376545 0.7421875 10.95703125 C1.03457894 14.40813625 2.16301879 16.1240704 4 19 C3.67 19.66 3.34 20.32 3 21 C2.01 20.67 1.02 20.34 0 20 C0 19.01 0 18.02 0 17 C-0.66 17 -1.32 17 -2 17 C-2.05383848 14.54137599 -2.09359038 12.0839245 -2.125 9.625 C-2.14175781 8.92632812 -2.15851563 8.22765625 -2.17578125 7.5078125 C-2.19344267 5.67102514 -2.10303261 3.83398037 -2 2 C-1.34 1.34 -0.68 0.68 0 0 Z " fill="#ACC2DF" transform="translate(83,170)"/>
<path d="M0 0 C0.66 0.33 1.32 0.66 2 1 C0.35 6.28 -1.3 11.56 -3 17 C-3.66 17 -4.32 17 -5 17 C-5.144375 17.78375 -5.28875 18.5675 -5.4375 19.375 C-6 22 -6 22 -7 24 C-7.99 24 -8.98 24 -10 24 C-10.33 22.35 -10.66 20.7 -11 19 C-10.34 19 -9.68 19 -9 19 C-8.67 19.66 -8.34 20.32 -8 21 C-7.34 19.35 -6.68 17.7 -6 16 C-5.34 16 -4.68 16 -4 16 C-4.061875 14.700625 -4.061875 14.700625 -4.125 13.375 C-3.99542279 9.87641532 -3.23980344 7.25448403 -2 4 C-1.34 4 -0.68 4 0 4 C0 2.68 0 1.36 0 0 Z " fill="#D0D1D2" transform="translate(125,109)"/>
<path d="M0 0 C1.56655074 3.94503325 0.35560827 6.39955635 -1.25 10.1875 C-1.90742187 11.78658203 -1.90742187 11.78658203 -2.578125 13.41796875 C-4 16 -4 16 -7 17 C-7.66 14.69 -8.32 12.38 -9 10 C-8.34 10 -7.68 10 -7 10 C-6.67 10.99 -6.34 11.98 -6 13 C-5.34 13.33 -4.68 13.66 -4 14 C-4.061875 13.154375 -4.12375 12.30875 -4.1875 11.4375 C-3.96732325 7.40092625 -2.98623274 2.98623274 0 0 Z " fill="#D9DBDC" transform="translate(62,117)"/>
<path d="M0 0 C0 0.66 0 1.32 0 2 C-0.59167969 2.18175781 -1.18335937 2.36351562 -1.79296875 2.55078125 C-6.24092391 3.96570989 -10.03969135 5.47980358 -14 8 C-14.66 8 -15.32 8 -16 8 C-16 7.01 -16 6.02 -16 5 C-10.72286772 0.82738378 -6.58581208 -0.18816606 0 0 Z " fill="#1C4A82" transform="translate(103,160)"/>
<path d="M0 0 C4.95 0 9.9 0 15 0 C15 0.99 15 1.98 15 3 C10.71 2.34 6.42 1.68 2 1 C2 1.66 2 2.32 2 3 C0.68 3 -0.64 3 -2 3 C-2 3.99 -2 4.98 -2 6 C-4.26216255 7.54779543 -6.55224566 8.77612283 -9 10 C-8.1875 8.0625 -8.1875 8.0625 -7 6 C-6.01 5.67 -5.02 5.34 -4 5 C-4 4.01 -4 3.02 -4 2 C-2.68 2 -1.36 2 0 2 C0 1.34 0 0.68 0 0 Z " fill="#C1D2EC" transform="translate(47,157)"/>
<path d="M0 0 C4.62 0 9.24 0 14 0 C14 0.66 14 1.32 14 2 C14.99 2.33 15.98 2.66 17 3 C15.90300781 2.98839844 14.80601563 2.97679687 13.67578125 2.96484375 C12.22135588 2.95546036 10.76692865 2.94636075 9.3125 2.9375 C8.59126953 2.92912109 7.87003906 2.92074219 7.12695312 2.91210938 C3.28444618 2.89456368 -0.26639526 3.06475779 -4 4 C-4 3.34 -4 2.68 -4 2 C-2.68 2 -1.36 2 0 2 C0 1.34 0 0.68 0 0 Z " fill="#C0D2EE" transform="translate(95,157)"/>
<path d="M0 0 C0.33 0 0.66 0 1 0 C0.69343615 6.62177926 -0.74288723 11.22125154 -4 17 C-5.19908285 13.53151203 -4.78945844 11.40005188 -3.6875 7.9375 C-3.42324219 7.08027344 -3.15898438 6.22304687 -2.88671875 5.33984375 C-2 3 -2 3 0 0 Z " fill="#848484" transform="translate(74,89)"/>
<path d="M0 0 C1.65 0 3.3 0 5 0 C5 0.99 5 1.98 5 3 C8.3 3 11.6 3 15 3 C15 3.33 15 3.66 15 4 C8.07 4 1.14 4 -6 4 C-6 3.34 -6 2.68 -6 2 C-4.02 2 -2.04 2 0 2 C0 1.34 0 0.68 0 0 Z " fill="#063A88" transform="translate(104,36)"/>
<path d="M0 0 C0.66 0.33 1.32 0.66 2 1 C0.60840337 4.47899158 -0.63251488 5.48052501 -4 7 C-4.05425226 9.39614126 -4.09379027 11.79103853 -4.125 14.1875 C-4.14175781 14.86103516 -4.15851563 15.53457031 -4.17578125 16.22851562 C-4.21538674 20.28807807 -3.80020002 23.34998815 -2 27 C-2.66 27 -3.32 27 -4 27 C-6.527223 23.14802301 -6.43878449 19.07842857 -6.5 14.625 C-6.54125 13.8825 -6.5825 13.14 -6.625 12.375 C-6.67191052 9.05608085 -6.62828238 6.85963707 -4.62890625 4.12402344 C-2.96875 2.4609375 -2.96875 2.4609375 0 0 Z " fill="#D9DBDC" transform="translate(148,104)"/>
<path d="M0 0 C1.4540625 0.0309375 1.4540625 0.0309375 2.9375 0.0625 C2.980221 1.72861905 2.97813832 3.39632885 2.9375 5.0625 C1.9375 6.0625 1.9375 6.0625 -0.625 6.125 C-1.8315625 6.0940625 -1.8315625 6.0940625 -3.0625 6.0625 C-3.44468767 4.40635343 -3.77645102 2.73792976 -4.0625 1.0625 C-3.0625 0.0625 -3.0625 0.0625 0 0 Z " fill="#C1C1C1" transform="translate(88.0625,88.9375)"/>
<path d="M0 0 C0.66 0 1.32 0 2 0 C2 1.32 2 2.64 2 4 C2.66 4 3.32 4 4 4 C4.33 3.34 4.66 2.68 5 2 C4.25749403 6.08378283 3.17076699 10.01939223 2 14 C1.17361624 11.10765685 1 9.11257569 1 6 C0.34 7.65 -0.32 9.3 -1 11 C-1.33 11 -1.66 11 -2 11 C-2 9.02 -2 7.04 -2 5 C-1.34 5 -0.68 5 0 5 C0 3.35 0 1.7 0 0 Z " fill="#C3C3C3" transform="translate(73,84)"/>
<path d="M0 0 C1.10844919 3.32534757 0.84454356 5.62182575 0 9 C-0.66 9 -1.32 9 -2 9 C-2 10.65 -2 12.3 -2 14 C-2.66 14 -3.32 14 -4 14 C-4.33 15.65 -4.66 17.3 -5 19 C-6.65 19 -8.3 19 -10 19 C-9.67 17.68 -9.34 16.36 -9 15 C-9 15.99 -9 16.98 -9 18 C-8.01 18 -7.02 18 -6 18 C-5.72736328 16.80503906 -5.72736328 16.80503906 -5.44921875 15.5859375 C-4.12980058 10.02408245 -2.88910437 4.95275035 0 0 Z " fill="#C1D5EA" transform="translate(143,76)"/>
<path d="M0 0 C0 0.66 0 1.32 0 2 C-2.29308963 3.14654482 -3.79909656 3.19729117 -6.3515625 3.31640625 C-7.20234375 3.35830078 -8.053125 3.40019531 -8.9296875 3.44335938 C-9.81914063 3.48267578 -10.70859375 3.52199219 -11.625 3.5625 C-12.97078125 3.62727539 -12.97078125 3.62727539 -14.34375 3.69335938 C-16.56234283 3.79956861 -18.7810488 3.90161194 -21 4 C-21 3.34 -21 2.68 -21 2 C-20.01257813 1.93941406 -19.02515625 1.87882812 -18.0078125 1.81640625 C-16.72648437 1.73261719 -15.44515625 1.64882813 -14.125 1.5625 C-12.84882812 1.48128906 -11.57265625 1.40007813 -10.2578125 1.31640625 C-6.54176911 0.95549556 -3.82085976 -0.10054894 0 0 Z " fill="#DEEEF9" transform="translate(94,44)"/>
<path d="M0 0 C1.175625 0.01353516 1.175625 0.01353516 2.375 0.02734375 C4.29180055 0.05071937 6.20844191 0.08658347 8.125 0.125 C8.125 0.455 8.125 0.785 8.125 1.125 C-0.29 1.62 -0.29 1.62 -8.875 2.125 C-8.875 2.785 -8.875 3.445 -8.875 4.125 C-11.185 4.125 -13.495 4.125 -15.875 4.125 C-14.875 2.125 -14.875 2.125 -12.3671875 1.0078125 C-8.14028078 -0.06073439 -4.33421703 -0.0954997 0 0 Z " fill="#084192" transform="translate(59.875,23.875)"/>
<path d="M0 0 C4 2 4 2 5.8671875 3.0546875 C10.56316501 5.13605482 15.74999309 4.35087913 20.5625 3 C21.366875 2.67 22.17125 2.34 23 2 C23 2.66 23 3.32 23 4 C18.92276266 5.95031692 15.68307578 6.21581971 11.1875 6.125 C10.02605469 6.10695312 8.86460938 6.08890625 7.66796875 6.0703125 C6.78753906 6.04710937 5.90710937 6.02390625 5 6 C5 5.34 5 4.68 5 4 C3.68 4 2.36 4 1 4 C0.67 2.68 0.34 1.36 0 0 Z " fill="#B0C4DF" transform="translate(41,192)"/>
<path d="M0 0 C0 0.66 0 1.32 0 2 C0.61875 1.835 1.2375 1.67 1.875 1.5 C6.25470729 0.79924683 10.57428989 0.92265749 15 1 C15.33 1.66 15.66 2.32 16 3 C15.34773438 2.97679687 14.69546875 2.95359375 14.0234375 2.9296875 C8.91301097 2.82416247 4.79574967 2.98073698 0 5 C-0.33 4.34 -0.66 3.68 -1 3 C-2.98 3 -4.96 3 -7 3 C-7 2.34 -7 1.68 -7 1 C-4.53721199 -0.231394 -2.7204945 -0.07159196 0 0 Z " fill="#BED2EC" transform="translate(134,157)"/>
<path d="M0 0 C3.32643967 2.98232523 5.29152862 5.86370087 7 10 C6.67 10.66 6.34 11.32 6 12 C5.67 11.67 5.34 11.34 5 11 C4.34 11.66 3.68 12.32 3 13 C-0.42857143 4.57142857 -0.42857143 4.57142857 0 0 Z " fill="#919192" transform="translate(108,119)"/>
<path d="M0 0 C1.19180968 3.4626903 0.80706459 5.65326824 -0.25 9.125 C-0.50265625 9.99382812 -0.7553125 10.86265625 -1.015625 11.7578125 C-2 14 -2 14 -5 16 C-4.70887831 9.58076669 -3.54784971 5.37899794 0 0 Z " fill="#81817F" transform="translate(68,107)"/>
<path d="M0 0 C0.625 2.5625 0.625 2.5625 1 5 C-0.155 4.525625 -1.31 4.05125 -2.5 3.5625 C-6.68570332 1.97791232 -10.55238986 1.39710805 -15 1 C-15 0.67 -15 0.34 -15 0 C-3.63636364 -1.81818182 -3.63636364 -1.81818182 0 0 Z " fill="#9E9E9E" transform="translate(170,101)"/>
<path d="M0 0 C0.33 0 0.66 0 1 0 C2 8 3 16 4 24 C4.66 24 5.32 24 6 24 C5.67 25.32 5.34 26.64 5 28 C4.34 27.67 3.68 27.34 3 27 C2.34392762 24.5261858 1.8207282 22.13816653 1.375 19.625 C1.17716919 18.54702148 1.17716919 18.54702148 0.9753418 17.44726562 C-0.03264415 11.60394435 -0.33910626 5.92807983 0 0 Z " fill="#B3C9E4" transform="translate(22,42)"/>
<path d="M0 0 C0 0.66 0 1.32 0 2 C-1.21236328 2.18175781 -1.21236328 2.18175781 -2.44921875 2.3671875 C-3.51785156 2.53476562 -4.58648437 2.70234375 -5.6875 2.875 C-6.74324219 3.03742187 -7.79898438 3.19984375 -8.88671875 3.3671875 C-11.97563697 3.89832775 -11.97563697 3.89832775 -14.65625 5.0625 C-17.81954653 6.32781861 -20.62963719 6.13217109 -24 6 C-22.68 5.67 -21.36 5.34 -20 5 C-20 4.34 -20 3.68 -20 3 C-13.43225798 1.40076258 -6.79034952 0 0 0 Z " fill="#9BB3D5" transform="translate(104,36)"/>
<path d="M0 0 C5.41390868 0.46671627 9.20517932 1.24297811 14 4 C14 4.33 14 4.66 14 5 C9.71 4.67 5.42 4.34 1 4 C0.67 2.68 0.34 1.36 0 0 Z " fill="#486791" transform="translate(74,26)"/>
<path d="M0 0 C0.66 0.33 1.32 0.66 2 1 C-1.75 4 -1.75 4 -4 4 C-4.33 6.31 -4.66 8.62 -5 11 C-5.66 10.67 -6.32 10.34 -7 10 C-7 9.34 -7 8.68 -7 8 C-7.66 7.67 -8.32 7.34 -9 7 C-7.8125 4.5625 -7.8125 4.5625 -6 2 C-3.375 1.25 -3.375 1.25 -1 1 C-0.67 0.67 -0.34 0.34 0 0 Z " fill="#466A9A" transform="translate(92,165)"/>
<path d="M0 0 C2.71159055 4.06738583 2.40999452 7.22987142 2 12 C1.48718197 14.42704396 0.80166344 16.64511366 0 19 C-0.66 19 -1.32 19 -2 19 C-1.84660156 18.49984375 -1.69320312 17.9996875 -1.53515625 17.484375 C-0.80542604 14.09672234 -0.63643523 10.70038481 -0.4375 7.25 C-0.39431641 6.55261719 -0.35113281 5.85523437 -0.30664062 5.13671875 C-0.20110404 3.42468078 -0.1001009 1.71236439 0 0 Z " fill="#888A8D" transform="translate(174,112)"/>
<path d="M0 0 C0.33 0 0.66 0 1 0 C1.125 6.75 1.125 6.75 0 9 C-0.66 9 -1.32 9 -2 9 C-2 9.66 -2 10.32 -2 11 C-2.66 11 -3.32 11 -4 11 C-3.56534471 6.47958496 -3.21201178 3.3458456 0 0 Z " fill="#8D8D8D" transform="translate(79,77)"/>
<path d="M0 0 C2 3 2 3 2 6 C2.66 6 3.32 6 4 6 C3.67 4.02 3.34 2.04 3 0 C5.5722047 1.28610235 6.00974907 2.33393981 7 5 C6.625 7.25 6.625 7.25 6 9 C5.67 8.67 5.34 8.34 5 8 C4.34 8.66 3.68 9.32 3 10 C0.96564469 6.27034861 0 4.33094958 0 0 Z " fill="#B1B1B1" transform="translate(104,112)"/>
<path d="M0 0 C0.5625 1.9375 0.5625 1.9375 1 4 C0.67 4.33 0.34 4.66 0 5 C-0.15686249 6.55948542 -0.25076639 8.12542668 -0.31640625 9.69140625 C-0.37924805 11.10776367 -0.37924805 11.10776367 -0.44335938 12.55273438 C-0.48267578 13.54595703 -0.52199219 14.53917969 -0.5625 15.5625 C-0.60568359 16.55958984 -0.64886719 17.55667969 -0.69335938 18.58398438 C-0.79980298 21.0558415 -0.90181928 23.5278031 -1 26 C-1.33 26 -1.66 26 -2 26 C-2.05799124 22.22923111 -2.09359306 18.45857666 -2.125 14.6875 C-2.14175781 13.61564453 -2.15851562 12.54378906 -2.17578125 11.43945312 C-2.18222656 10.41142578 -2.18867188 9.38339844 -2.1953125 8.32421875 C-2.20578613 7.37635498 -2.21625977 6.42849121 -2.22705078 5.4519043 C-2 3 -2 3 0 0 Z " fill="#E2F3FE" transform="translate(34,38)"/>
<path d="M0 0 C7.74468085 0.74468085 7.74468085 0.74468085 11 4 C11 4.66 11 5.32 11 6 C7.7 5.67 4.4 5.34 1 5 C2.32 4.34 3.64 3.68 5 3 C2.525 2.01 2.525 2.01 0 1 C0 0.67 0 0.34 0 0 Z " fill="#BBC9DD" transform="translate(82,27)"/>
<path d="M0 0 C0.66 0 1.32 0 2 0 C3.91847864 2.87771795 5.50079488 5.88626628 7 9 C4.625 8.6875 4.625 8.6875 2 8 C-0.1519437 4.77208445 -0.20086443 3.71599191 0 0 Z " fill="#174683" transform="translate(85,183)"/>
<path d="M0 0 C0.66 0.33 1.32 0.66 2 1 C1.67 2.32 1.34 3.64 1 5 C0.34 5 -0.32 5 -1 5 C-1 7.97 -1 10.94 -1 14 C-0.34 14 0.32 14 1 14 C0.67 15.32 0.34 16.64 0 18 C-2 16 -2 16 -2.265625 13.06640625 C-2.26046875 11.91011719 -2.2553125 10.75382813 -2.25 9.5625 C-2.25515625 8.40878906 -2.2603125 7.25507813 -2.265625 6.06640625 C-2 3 -2 3 0 0 Z " fill="#AFC3E3" transform="translate(42,168)"/>
<path d="M0 0 C11.70615034 -0.55353075 11.70615034 -0.55353075 16 3 C13.25816852 4.37091574 11.81247657 3.3565716 9.01953125 2.48046875 C5.65771964 1.6806567 2.44183909 1.87923372 -1 2 C-0.67 1.34 -0.34 0.68 0 0 Z " fill="#CCCDCF" transform="translate(152,102)"/>
<path d="M0 0 C4.95 0 9.9 0 15 0 C15 0.33 15 0.66 15 1 C11.04 1 7.08 1 3 1 C3 2.65 3 4.3 3 6 C2.01 5.34 1.02 4.68 0 4 C0 2.68 0 1.36 0 0 Z " fill="#D0EAFC" transform="translate(88,181)"/>
<path d="M0 0 C0.66 0 1.32 0 2 0 C5.07692308 5.41538462 5.07692308 5.41538462 4.6875 8.375 C4.460625 8.91125 4.23375 9.4475 4 10 C3.34 10 2.68 10 2 10 C1.34 6.7 0.68 3.4 0 0 Z " fill="#89898A" transform="translate(44,107)"/>
<path d="M0 0 C0.99 0 1.98 0 3 0 C3 3.20395416 2.25664978 5.09399739 1 8 C0.01 8 -0.98 8 -2 8 C-2 6.35 -2 4.7 -2 3 C-1.34 3 -0.68 3 0 3 C0 2.01 0 1.02 0 0 Z " fill="#7187A0" transform="translate(136,86)"/>
<path d="M0 0 C1.0725 -0.01675781 2.145 -0.03351563 3.25 -0.05078125 C4.1575 0.06910156 5.065 0.18898437 6 0.3125 C6.66 1.3025 7.32 2.2925 8 3.3125 C6.35 3.3125 4.7 3.3125 3 3.3125 C3 2.6525 3 1.9925 3 1.3125 C1.741875 1.4775 0.48375 1.6425 -0.8125 1.8125 C-3.26456585 2.13408241 -5.51650694 2.3125 -8 2.3125 C-5.29921247 -0.38828753 -3.75964828 0.01355642 0 0 Z " fill="#B2CCEB" transform="translate(144,163.6875)"/>
<path d="M0 0 C0.89203125 0.00902344 1.7840625 0.01804687 2.703125 0.02734375 C3.37859375 0.03894531 4.0540625 0.05054687 4.75 0.0625 C4.75 0.3925 4.75 0.7225 4.75 1.0625 C-3.17 2.5475 -3.17 2.5475 -11.25 4.0625 C-9.25 1.0625 -9.25 1.0625 -7.453125 0.37890625 C-4.93805939 0.01770002 -2.54041065 -0.03342646 0 0 Z " fill="#B6CEEA" transform="translate(50.25,28.9375)"/>
<path d="M0 0 C0.66 0.33 1.32 0.66 2 1 C2.08076963 3.45898655 2.14037143 5.91533742 2.1875 8.375 C2.21263672 9.07367188 2.23777344 9.77234375 2.26367188 10.4921875 C2.29296875 12.5234375 2.29296875 12.5234375 2 16 C1.01 16.66 0.02 17.32 -1 18 C-1 16.68 -1 15.36 -1 14 C-0.34 14 0.32 14 1 14 C0.67 9.38 0.34 4.76 0 0 Z " fill="#DEEEFD" transform="translate(65,170)"/>
<path d="M0 0 C1.98 0.495 1.98 0.495 4 1 C4.33 2.65 4.66 4.3 5 6 C2 6 2 6 0.3125 4.5 C-0.120625 4.005 -0.55375 3.51 -1 3 C-0.67 2.01 -0.34 1.02 0 0 Z " fill="#25518C" transform="translate(152,163)"/>
<path d="M0 0 C1.32 0 2.64 0 4 0 C3.34 1.32 2.68 2.64 2 4 C1.34 4 0.68 4 0 4 C-0.66 5.32 -1.32 6.64 -2 8 C-3.24546405 5.50907189 -2.7767578 4.58919267 -2 2 C-1.34 2 -0.68 2 0 2 C0 1.34 0 0.68 0 0 Z " fill="#B2C9E1" transform="translate(87,161)"/>
<path d="M0 0 C0.66 0 1.32 0 2 0 C1.67 0.99 1.34 1.98 1 3 C-3.7300622 4.8621508 -8.96242242 5.25833731 -14 5 C-13.360625 4.690625 -12.72125 4.38125 -12.0625 4.0625 C-10.06389179 3.1654837 -10.06389179 3.1654837 -9 2 C-7.48071962 1.92820036 -5.95832518 1.91607993 -4.4375 1.9375 C-3.61121094 1.94652344 -2.78492187 1.95554688 -1.93359375 1.96484375 C-1.29550781 1.97644531 -0.65742187 1.98804688 0 2 C0 1.34 0 0.68 0 0 Z " fill="#E9F8FF" transform="translate(99,34)"/>
<path d="M0 0 C0.33 0.66 0.66 1.32 1 2 C1.99 2 2.98 2 4 2 C3.34 3.65 2.68 5.3 2 7 C1.01 7 0.02 7 -1 7 C-1.04254356 5.00045254 -1.04080783 2.99958364 -1 1 C-0.67 0.67 -0.34 0.34 0 0 Z " fill="#1F5298" transform="translate(133,162)"/>
<path d="M0 0 C4.31392226 0.4793247 6.16569547 1.7457985 9 5 C8.01 5.33 7.02 5.66 6 6 C6 5.34 6 4.68 6 4 C5.01 4 4.02 4 3 4 C3 3.34 3 2.68 3 2 C2.01 2 1.02 2 0 2 C0 1.34 0 0.68 0 0 Z " fill="#164480" transform="translate(59,161)"/>
<path d="M0 0 C4.29 0.66 8.58 1.32 13 2 C13 2.33 13 2.66 13 3 C11.39679026 3.19551338 9.79237014 3.38111983 8.1875 3.5625 C7.29417969 3.66691406 6.40085938 3.77132812 5.48046875 3.87890625 C3 4 3 4 0 3 C0 2.01 0 1.02 0 0 Z " fill="#7F7F7F" transform="translate(148,134)"/>
<path d="M0 0 C1.485 0.99 1.485 0.99 3 2 C3 3.32 3 4.64 3 6 C3.99 6 4.98 6 6 6 C6 6.66 6 7.32 6 8 C4.35 7.67 2.7 7.34 1 7 C0.67 4.69 0.34 2.38 0 0 Z " fill="#777778" transform="translate(112,129)"/>
<path d="M0 0 C0.66 0 1.32 0 2 0 C2.66 2.64 3.32 5.28 4 8 C3.01 8 2.02 8 1 8 C0.26919734 6.02253397 -0.39421747 4.01927511 -1 2 C-0.67 1.34 -0.34 0.68 0 0 Z " fill="#496C8D" transform="translate(31,72)"/>
<path d="M0 0 C-0.33 0.33 -0.66 0.66 -1 1 C0.65 1.33 2.3 1.66 4 2 C4 2.33 4 2.66 4 3 C0.04 3 -3.92 3 -8 3 C-8 2.34 -8 1.68 -8 1 C-2.25 -1.125 -2.25 -1.125 0 0 Z " fill="#C9D2DB" transform="translate(69,45)"/>
<path d="M0 0 C2.42472438 2.51822275 2.99254989 3.67533206 3.07421875 7.234375 C2.94660156 8.39453125 2.81898437 9.5546875 2.6875 10.75 C2.56761719 11.92046875 2.44773438 13.0909375 2.32421875 14.296875 C2.21722656 15.18890625 2.11023437 16.0809375 2 17 C1.67 17 1.34 17 1 17 C1 12.71 1 8.42 1 4 C0.34 4 -0.32 4 -1 4 C-0.67 2.68 -0.34 1.36 0 0 Z " fill="#496A9C" transform="translate(38,167)"/>
<path d="M0 0 C0.99 0.33 1.98 0.66 3 1 C2.195625 1.61875 1.39125 2.2375 0.5625 2.875 C-2.03874519 4.74164041 -2.03874519 4.74164041 -3 7 C-3.66 7 -4.32 7 -5 7 C-5 7.66 -5 8.32 -5 9 C-5.66 9 -6.32 9 -7 9 C-5.44499019 5.18315774 -2.96404505 2.80804268 0 0 Z " fill="#888888" transform="translate(89,65)"/>
<path d="M0 0 C0.33 0.99 0.66 1.98 1 3 C1.66 3 2.32 3 3 3 C3.33 2.34 3.66 1.68 4 1 C4.33 3.64 4.66 6.28 5 9 C4.01 8.67 3.02 8.34 2 8 C2 6.68 2 5.36 2 4 C1.34 4 0.68 4 0 4 C0 2.68 0 1.36 0 0 Z " fill="#325990" transform="translate(26,62)"/>
<path d="M0 0 C0.99 0 1.98 0 3 0 C2.34 4.62 1.68 9.24 1 14 C0.67 14 0.34 14 0 14 C-0.91297308 9.02936879 -0.91297308 4.97063121 0 0 Z " fill="#215292" transform="translate(26,48)"/>
<path d="M0 0 C0.89332031 0.12761719 1.78664063 0.25523438 2.70703125 0.38671875 C3.60808594 0.50660156 4.50914063 0.62648437 5.4375 0.75 C6.12457031 0.85699219 6.81164062 0.96398438 7.51953125 1.07421875 C7.51953125 1.40421875 7.51953125 1.73421875 7.51953125 2.07421875 C1.08453125 2.56921875 1.08453125 2.56921875 -5.48046875 3.07421875 C-2.48046875 0.07421875 -2.48046875 0.07421875 0 0 Z " fill="#9CA9B8" transform="translate(71.48046875,43.92578125)"/>
<path d="M0 0 C3.96 0 7.92 0 12 0 C12 0.66 12 1.32 12 2 C12.66 2.33 13.32 2.66 14 3 C9.30976546 2.43393721 4.65499974 1.81462495 0 1 C0 0.67 0 0.34 0 0 Z " fill="#E3F0FD" transform="translate(121,30)"/>
<path d="M0 0 C0.33 0 0.66 0 1 0 C1 2.31 1 4.62 1 7 C0.34 7 -0.32 7 -1 7 C-1.33 8.32 -1.66 9.64 -2 11 C-2.66 10.34 -3.32 9.68 -4 9 C-4 8.01 -4 7.02 -4 6 C-3.01 5.67 -2.02 5.34 -1 5 C-0.67 3.35 -0.34 1.7 0 0 Z " fill="#727173" transform="translate(176,101)"/>
<path d="M0 0 C0.99 0 1.98 0 3 0 C3.33 0.99 3.66 1.98 4 3 C6.97 3.495 6.97 3.495 10 4 C10 4.33 10 4.66 10 5 C7.36 5 4.72 5 2 5 C1.67 4.34 1.34 3.68 1 3 C0.34 3 -0.32 3 -1 3 C-0.67 2.01 -0.34 1.02 0 0 Z " fill="#D4E5F6" transform="translate(65,193)"/>
<path d="M0 0 C0 0.66 0 1.32 0 2 C0.99 2.33 1.98 2.66 3 3 C-4.42857143 3.28571429 -4.42857143 3.28571429 -8 1 C-5.07175348 0.02391783 -3.04386724 -0.08226668 0 0 Z " fill="#325F93" transform="translate(145,159)"/>
<path d="M0 0 C0.66 0.33 1.32 0.66 2 1 C1.67 1.99 1.34 2.98 1 4 C1.99 3.67 2.98 3.34 4 3 C4 5.64 4 8.28 4 11 C3.67 11 3.34 11 3 11 C3 9.35 3 7.7 3 6 C1.68 5.67 0.36 5.34 -1 5 C-0.67 3.35 -0.34 1.7 0 0 Z " fill="#ADAEB3" transform="translate(171,127)"/>
<path d="M0 0 C1.32 0 2.64 0 4 0 C4 1.98 4 3.96 4 6 C3.34 6 2.68 6 2 6 C2 4.68 2 3.36 2 2 C1.01 3.32 0.02 4.64 -1 6 C-1.042721 4.33388095 -1.04063832 2.66617115 -1 1 C-0.67 0.67 -0.34 0.34 0 0 Z " fill="#B7BABE" transform="translate(130,99)"/>
<path d="M0 0 C0.66 0.99 1.32 1.98 2 3 C-1 5 -1 5 -5 5 C-5 4.01 -5 3.02 -5 2 C-3.35 1.34 -1.7 0.68 0 0 Z " fill="#154B96" transform="translate(114,34)"/>
<path d="M0 0 C0.66 0.33 1.32 0.66 2 1 C0.86500606 4.29148243 0.00716624 4.9959869 -3.125 6.75 C-4.548125 7.36875 -4.548125 7.36875 -6 8 C-4.55746343 4.63408134 -2.66735273 2.48952921 0 0 Z " fill="#CCCDCE" transform="translate(148,104)"/>
<path d="M0 0 C0 0.66 0 1.32 0 2 C-2.35438733 3.42944945 -3.48032433 4.08661261 -6.25 3.625 C-6.8275 3.41875 -7.405 3.2125 -8 3 C-5.53387212 -0.1151089 -3.89156016 -0.31553191 0 0 Z " fill="#164B90" transform="translate(44,28)"/>
<path d="M0 0 C1.66611905 -0.042721 3.33382885 -0.04063832 5 0 C5.33 0.33 5.66 0.66 6 1 C8.32817964 1.36760731 10.6618385 1.70241581 13 2 C13 2.33 13 2.66 13 3 C4.80743982 3.4726477 4.80743982 3.4726477 1.4375 1.5 C0.963125 1.005 0.48875 0.51 0 0 Z " fill="#5B779C" transform="translate(45,194)"/>
<path d="M0 0 C1.32 0 2.64 0 4 0 C3.34 1.32 2.68 2.64 2 4 C0.68 4 -0.64 4 -2 4 C-1.34 2.68 -0.68 1.36 0 0 Z " fill="#1F4B83" transform="translate(112,188)"/>
<path d="M0 0 C0.66 0 1.32 0 2 0 C2.33 0.99 2.66 1.98 3 3 C3.99 3 4.98 3 6 3 C5.34 4.32 4.68 5.64 4 7 C3.34 7 2.68 7 2 7 C1.34 4.69 0.68 2.38 0 0 Z " fill="#C5C7C8" transform="translate(53,127)"/>
<path d="M0 0 C0.99 0.33 1.98 0.66 3 1 C3.33 3.31 3.66 5.62 4 8 C1.10067643 5.60490662 0.49831724 3.68754757 0 0 Z " fill="#797979" transform="translate(100,100)"/>
<path d="M0 0 C3.37462715 0.54723683 5.08235 1.0549 8 3 C7.67 3.66 7.34 4.32 7 5 C4.69 4.01 2.38 3.02 0 2 C0 1.34 0 0.68 0 0 Z " fill="#7A7A7B" transform="translate(163,101)"/>
<path d="M0 0 C2.64 0 5.28 0 8 0 C8 0.99 8 1.98 8 3 C2.25 2.25 2.25 2.25 0 0 Z " fill="#BDD5F0" transform="translate(60,20)"/>
<path d="M0 0 C0.99 0 1.98 0 3 0 C3 1.65 3 3.3 3 5 C3.99 5.33 4.98 5.66 6 6 C4.35 5.67 2.7 5.34 1 5 C1 4.01 1 3.02 1 2 C0.34 1.67 -0.32 1.34 -1 1 C-0.67 0.67 -0.34 0.34 0 0 Z " fill="#85A5C9" transform="translate(67,191)"/>
<path d="M0 0 C0.33 0 0.66 0 1 0 C1.29296875 6.0546875 1.29296875 6.0546875 1 8 C0.01 8.66 -0.98 9.32 -2 10 C-1.46274105 6.62294375 -0.88935377 3.303314 0 0 Z " fill="#DCDEDD" transform="translate(63,126)"/>
<path d="M0 0 C0.66 0 1.32 0 2 0 C3.76462683 3.08809695 4 4.23312136 4 8 C3.34 8 2.68 8 2 8 C1.34 5.36 0.68 2.72 0 0 Z " fill="#808080" transform="translate(104,110)"/>
<path d="M0 0 C0 0.66 0 1.32 0 2 C1.32 2.33 2.64 2.66 4 3 C0.04 3 -3.92 3 -8 3 C-8 2.67 -8 2.34 -8 2 C-2.25 0 -2.25 0 0 0 Z " fill="#5C77A2" transform="translate(81,42)"/>
</svg>
